<svg width="190" height="25" viewBox="0 0 190 25" fill="none" xmlns="http://www.w3.org/2000/svg">
<path d="M47.6646 7.04213H53.6021V24.2956H60.1993V7.04213H66.1368V0.704102H47.6646V7.04213Z" fill="#314D63"/>
<path d="M78.7706 9.71831L76.2637 9.01408C74.9113 8.62676 74.2186 8.09859 74.2186 7.46479C74.2186 6.51408 75.2411 5.98592 77.0884 5.98592C79.3644 5.98592 81.8384 6.93662 83.9495 8.62676V1.93662C81.5085 0.633803 79.0345 0 76.4286 0C71.0189 0 67.6213 2.92254 67.6213 7.60563C67.6213 11.1972 69.5345 13.5211 73.3939 14.6127L76.5936 15.5282C77.88 15.8803 78.5068 16.4437 78.5068 17.2183C78.5068 18.3803 77.3852 19.0141 75.3731 19.0141C72.7342 19.0141 69.9963 17.9225 67.7863 15.9859V22.6761C70.3592 24.2254 73.097 25 76.0328 25C81.6074 25 85.104 21.9366 85.104 17.0423C85.104 13.3451 82.9929 10.9155 78.7706 9.71831Z" fill="#314D63"/>
<path d="M39.0885 14.9647C39.0885 16.9365 37.6371 18.4858 35.7899 18.4858C33.9427 18.4858 32.4913 16.9365 32.4913 14.9647V0.704102H25.894V14.4365C25.894 20.6337 29.9843 24.9999 35.7899 24.9999C41.5954 24.9999 45.6857 20.6337 45.6857 14.4365V0.704102H39.0885V14.9647Z" fill="#314D63"/>
<path d="M11.875 0C5.21181 0 0 5.49296 0 12.5C0 19.507 5.21181 25 11.875 25C18.5382 25 23.75 19.507 23.75 12.5C23.75 5.49296 18.5382 0 11.875 0ZM11.875 18.4859C9.00521 18.4859 6.76215 15.8451 6.76215 12.5C6.76215 9.15493 9.00521 6.51408 11.875 6.51408C14.7448 6.51408 16.9878 9.15493 16.9878 12.5C16.9878 15.8451 14.7448 18.4859 11.875 18.4859Z" fill="#314D63"/>
<path d="M181.094 17.9576V0.704102H174.497V24.2956H190V17.9576H181.094Z" fill="#314D63"/>
<path d="M160.478 0C157.74 0 155.794 0.704225 153.386 2.53521C151.935 3.52113 151.209 3.87324 150.582 3.87324C149.824 3.87324 149.131 3.52113 147.779 2.53521C145.371 0.704225 143.424 0 140.687 0C134.023 0 128.812 5.49296 128.812 12.5C128.812 19.507 134.023 25 140.687 25C143.391 25 145.338 24.2958 147.779 22.4648C149.098 21.4437 149.791 21.1268 150.582 21.1268C151.407 21.1268 152.1 21.4437 153.386 22.4648C155.794 24.2958 157.74 25 160.478 25C167.141 25 172.353 19.507 172.353 12.5C172.353 5.49296 167.141 0 160.478 0ZM160.445 18.3099C158.895 18.3099 156.586 17.3239 154.871 15.9507C153.254 14.6479 151.968 14.0845 150.582 14.0845C149.23 14.0845 147.91 14.6479 146.294 15.9859C144.579 17.3592 142.27 18.3099 140.72 18.3099C137.85 18.3099 135.574 15.7394 135.574 12.5C135.574 9.26056 137.85 6.69014 140.72 6.69014C142.27 6.69014 144.579 7.64085 146.294 9.01408C147.976 10.3521 149.296 10.9155 150.582 10.9155C151.968 10.9155 153.254 10.3521 154.871 9.0493C156.586 7.67606 158.895 6.69014 160.445 6.69014C163.315 6.69014 165.591 9.26056 165.591 12.5C165.591 15.7394 163.315 18.3099 160.445 18.3099Z" fill="#314D63"/>
<path d="M120.069 9.15481H113.472V0.704102H106.875V24.2956H113.472V15.4928H120.069V24.2956H126.667V0.704102H120.069V9.15481Z" fill="#314D63"/>
<path d="M86.4229 12.5C86.4229 19.8239 91.3378 25 98.2979 25C100.112 25 102.421 24.5775 104.235 23.9085V17.2183C102.751 18.0634 101.102 18.4859 99.2874 18.4859C95.6919 18.4859 93.185 16.0211 93.185 12.5C93.185 8.97887 95.6919 6.51408 99.2874 6.51408C101.003 6.51408 102.652 6.97183 104.235 7.85211V1.16197C102.52 0.457747 100.244 0 98.2979 0C91.3378 0 86.4229 5.17606 86.4229 12.5Z" fill="#314D63"/>
</svg>
