<svg width="20" height="20" viewBox="0 0 20 20" fill="none" xmlns="http://www.w3.org/2000/svg">
<g clip-path="url(#clip0_1003_1921)">
<path d="M4.8148 14.4624C4.8148 13.757 4.21521 13.1572 3.5098 13.1572C2.80417 13.1572 2.20459 13.757 2.20459 14.4624C2.20459 15.1679 2.80417 15.7676 3.5098 15.7676C4.21521 15.7676 4.8148 15.1679 4.8148 14.4624ZM3.22751 14.4624C3.22751 14.286 3.36855 14.1801 3.5098 14.1801C3.65084 14.1801 3.79188 14.3214 3.79188 14.4624C3.79188 14.6035 3.65084 14.7445 3.5098 14.7445C3.36855 14.7445 3.22751 14.6035 3.22751 14.4624Z" fill="#8FB9AB"/>
<path d="M4.39141 15.9785C4.21516 15.9433 4.0387 15.9785 3.89766 16.0844C3.79183 16.1902 3.65079 16.2256 3.50974 16.2256C3.36849 16.2256 3.22745 16.155 3.12162 16.0844C2.98058 15.9785 2.80412 15.9081 2.62787 15.9785C1.49912 16.296 0.828911 17.3896 1.04058 18.5183C1.21683 19.4002 1.95766 19.9998 2.83954 19.9998H4.17974C5.06162 19.9998 5.80245 19.3648 5.9787 18.5183C6.19037 17.3896 5.48495 16.296 4.39141 15.9785ZM4.95579 18.3419C4.88537 18.73 4.56787 19.0121 4.17974 19.0121H2.87474C2.48683 19.0121 2.13391 18.73 2.06349 18.3419C1.95766 17.8129 2.23974 17.2837 2.69829 17.0369C2.94537 17.1779 3.22745 17.2485 3.50974 17.2485C3.79183 17.2485 4.07412 17.1779 4.32099 17.0369C4.81474 17.2837 5.06162 17.8129 4.95579 18.3419Z" fill="#8FB9AB"/>
<path d="M11.3052 14.4624C11.3052 13.757 10.7054 13.1572 10 13.1572C9.29462 13.1572 8.69482 13.757 8.69482 14.4624C8.69482 15.1679 9.29462 15.7676 10 15.7676C10.7054 15.7676 11.3052 15.1679 11.3052 14.4624ZM9.71795 14.4624C9.71795 14.286 9.85899 14.1801 10 14.1801C10.1411 14.1801 10.2821 14.3214 10.2821 14.4624C10.2821 14.6035 10.1411 14.7445 10 14.7445C9.85899 14.7445 9.71795 14.6035 9.71795 14.4624Z" fill="#8FB9AB"/>
<path d="M10.8819 15.9785C10.7054 15.9433 10.5291 15.9785 10.3879 16.0844C10.2821 16.1902 10.141 16.2256 9.99998 16.2256C9.85894 16.2256 9.7179 16.155 9.61206 16.0844C9.47081 15.9785 9.29456 15.9081 9.1181 15.9785C7.98935 16.296 7.31914 17.3896 7.53081 18.5183C7.70727 19.4002 8.44789 19.9998 9.32977 19.9998H10.635C11.5166 19.9998 12.2575 19.3648 12.4339 18.5183C12.6454 17.3896 11.9752 16.296 10.8819 15.9785ZM11.4462 18.3419C11.3756 18.73 11.0229 19.0121 10.635 19.0121H9.32977C8.94185 19.0121 8.58915 18.73 8.51852 18.3419C8.41269 17.8129 8.69477 17.2837 9.15352 17.0369C9.4004 17.1779 9.68248 17.2485 9.96477 17.2485C10.2469 17.2485 10.5291 17.1779 10.776 17.0369C11.2698 17.2837 11.5521 17.8129 11.4462 18.3419Z" fill="#8FB9AB"/>
<path d="M17.7955 14.4624C17.7955 13.757 17.1959 13.1572 16.4903 13.1572C15.7849 13.1572 15.1853 13.757 15.1853 14.4624C15.1853 15.1679 15.7849 15.7676 16.4903 15.7676C17.1959 15.7676 17.7955 15.1679 17.7955 14.4624ZM16.173 14.4624C16.173 14.286 16.3141 14.1801 16.4551 14.1801C16.5961 14.1801 16.7374 14.3214 16.7374 14.4624C16.7374 14.6035 16.5961 14.7445 16.4551 14.7445C16.3141 14.7445 16.173 14.6035 16.173 14.4624Z" fill="#8FB9AB"/>
<path d="M17.3369 15.9785C17.1605 15.9433 16.9842 15.9785 16.8432 16.0844C16.7373 16.1902 16.5961 16.2256 16.4551 16.2256C16.314 16.2256 16.173 16.155 16.0671 16.0844C15.9259 15.9785 15.7496 15.9081 15.5732 15.9785C14.4444 16.296 13.7742 17.3896 13.9859 18.5183C14.1623 19.4002 14.903 19.9998 15.7848 19.9998H17.0901C17.9719 19.9998 18.7126 19.3648 18.889 18.5183C19.1359 17.3896 18.4657 16.296 17.3369 15.9785ZM17.9365 18.3419C17.8661 18.73 17.5132 19.0121 17.1253 19.0121H15.8203C15.4321 19.0121 15.0794 18.73 15.0088 18.3419C14.903 17.8129 15.1853 17.2837 15.6438 17.0369C15.8907 17.1779 16.173 17.2485 16.4551 17.2485C16.7373 17.2485 17.0194 17.1779 17.2663 17.0369C17.7603 17.2837 18.0423 17.8129 17.9365 18.3419Z" fill="#8FB9AB"/>
<path d="M19.4887 0H0.511572C0.229489 0 0.0178223 0.211667 0.0178223 0.49375V9.48854C0.0178223 9.77063 0.229489 9.98229 0.511572 9.98229H4.1447C4.42699 9.98229 4.63866 9.77063 4.63866 9.48854C4.63866 9.20625 4.42699 8.99479 4.1447 8.99479H1.00532V1.02292H18.9949V8.95938H15.7849C15.5028 8.95938 15.2912 9.17104 15.2912 9.45333C15.2912 9.73542 15.5028 9.94708 15.7849 9.94708H19.4887C19.7707 9.94708 19.9824 9.73542 19.9824 9.45333V0.529167C19.9824 0.246875 19.7707 0 19.4887 0Z" fill="#8FB9AB"/>
<path d="M11.4815 3.66798C11.4815 2.85673 10.8113 2.18652 10 2.18652C9.18876 2.18652 8.51855 2.85673 8.51855 3.66798C8.51855 4.47944 9.18876 5.14965 10 5.14965C10.8113 5.14965 11.4815 4.47944 11.4815 3.66798ZM9.54147 3.66798C9.54147 3.42111 9.75314 3.20944 10 3.20944C10.2469 3.20944 10.4586 3.42111 10.4586 3.66798C10.4586 3.91507 10.2469 4.12673 10 4.12673C9.75314 4.12673 9.54147 3.91507 9.54147 3.66798Z" fill="#8FB9AB"/>
<path d="M14.515 9.45342V7.61904C14.515 7.33696 14.3034 7.12529 14.0213 7.12529H12.8571C12.6102 6.24342 11.94 5.538 11.0582 5.29113C10.8819 5.25592 10.7055 5.29113 10.5644 5.39696C10.4234 5.538 10.2117 5.60863 10.0352 5.60863C9.859 5.60863 9.64733 5.538 9.50629 5.39696C9.36504 5.29113 9.18879 5.2205 9.01233 5.29113C8.13046 5.538 7.46046 6.24342 7.21337 7.12529H6.04941C5.76733 7.12529 5.55566 7.33696 5.55566 7.61904V9.45342C5.55566 9.7355 5.76733 9.94717 6.04941 9.94717H6.29629V11.9226C6.29629 12.2047 6.50796 12.4163 6.79025 12.4163H13.1746C13.4569 12.4163 13.6684 12.2047 13.6684 11.9226V9.94717H13.9859C14.2682 9.98238 14.515 9.7355 14.515 9.45342ZM9.04775 6.34925C9.32983 6.52571 9.68254 6.63154 10 6.63154C10.3527 6.63154 10.6702 6.52571 10.9523 6.34925C11.3052 6.49029 11.5873 6.77258 11.7284 7.12529H8.23629C8.41275 6.77258 8.69483 6.49029 9.04775 6.34925ZM13.4921 8.95946H13.1746C12.8925 8.95946 12.6809 9.17113 12.6809 9.45342V11.4286H7.31921V9.45342C7.31921 9.17113 7.10754 8.95946 6.82546 8.95946H6.50796V8.113H13.4921V8.95946Z" fill="#8FB9AB"/>
</g>
<defs>
<clipPath id="clip0_1003_1921">
<rect width="20" height="20" fill="white"/>
</clipPath>
</defs>
</svg>
