<svg width="20" height="20" viewBox="0 0 20 20" fill="none" xmlns="http://www.w3.org/2000/svg">
<g clip-path="url(#clip0_1003_1804)">
<path fill-rule="evenodd" clip-rule="evenodd" d="M14.6799 13.9804C15.0484 13.4843 15.5823 13.4465 15.9036 13.8859C16.2627 14.3773 15.8044 14.9774 15.502 15.1285L14.6799 13.9804ZM8.84949 12.0291L10.0354 12.6291C9.95509 12.8229 9.35505 13.867 9.22748 14.0088C9.08101 13.8954 8.11243 12.6291 8.0888 12.5583L8.84949 12.0291ZM4.79563 12.6055C4.80508 12.6008 4.81453 12.5961 4.82398 12.5913L5.19724 12.3882C5.991 11.9913 5.83508 11.9866 6.19417 12.2512C6.35008 12.3645 6.5249 12.4638 6.64775 12.5724C6.59105 12.6906 6.47293 12.8181 6.37843 12.9362L5.5138 14.0229L4.70586 12.6764L4.79563 12.6055ZM6.40206 9.87459C7.44151 9.96436 7.03045 10.0872 8.31087 9.86986L8.30614 11.2164C7.98486 11.3865 7.67775 11.6795 7.35174 11.8495C7.04463 11.6984 6.70444 11.3865 6.40206 11.207V9.87459ZM11.1741 5.54669C11.6513 5.54669 12.1285 5.47109 12.1285 6.15146C12.1285 7.05389 12.0009 7.03027 11.0607 7.03027C11.1174 6.64756 11.1741 6.36407 11.1741 5.95302V5.54669ZM3.65223 7.03027C2.98604 7.03027 2.58443 7.12004 2.58443 6.3499C2.57971 5.54196 2.79232 5.54669 3.53884 5.54669C3.53884 6.15146 3.56246 6.45384 3.65223 7.03027ZM4.49325 4.97971C5.16416 4.65843 5.19251 4.47889 5.58939 3.95916C5.75004 4.04893 5.89651 4.18122 6.05242 4.28989C7.23834 5.13091 8.74555 5.45692 10.1913 5.54669C10.2906 5.84907 10.1724 6.64756 10.0779 6.94995C9.09991 10.0636 4.49325 9.50605 4.49325 5.95302V4.97971ZM6.23196 1.14791C7.28559 1.00145 8.11243 1.3747 8.93926 1.74324C9.14243 1.83301 9.28417 1.93695 9.49679 2.03145C9.79918 2.17319 9.92202 2.05507 10.163 1.93695C10.385 1.82828 11.0938 1.37943 11.3584 1.57787C11.5662 1.73379 11.9678 3.30714 11.2166 4.28989C10.9426 4.64898 10.3709 4.57811 9.8417 4.52613C8.36757 4.38439 7.29977 4.01113 6.18472 3.16067C5.96265 2.99058 5.62247 2.32438 5.14527 2.68347C4.961 2.81576 4.961 3.01893 4.84288 3.24572C4.26646 4.37966 3.59554 4.21902 3.61444 3.5859C3.66641 2.03617 4.67279 1.36053 6.23196 1.14791ZM2.91517 4.53086C2.8065 4.60173 2.57026 4.60645 2.28677 4.79072C1.32292 5.42857 1.37489 7.36573 2.43324 7.87128C2.88682 8.08862 3.52466 8.01775 4.05857 8.01775C4.56884 8.72646 4.3893 8.62724 5.04132 9.17059C5.57994 9.62417 5.44765 9.1139 5.44765 11.1786C5.13109 11.2731 4.13889 11.8212 3.80343 12.0149C3.35457 12.2701 2.87737 12.8417 2.61751 13.3615C1.92296 14.7411 2.10723 16.2956 2.10723 17.9729C2.10723 18.7005 1.90879 20.151 2.77342 19.8108C3.11361 19.6738 3.06164 19.2769 3.06164 18.8422C3.06164 17.9681 3.00966 15.5727 3.08999 15.001C3.17031 14.4482 3.32622 14.056 3.59081 13.6166C3.69003 13.4512 3.7798 13.3568 3.85067 13.215C3.95462 13.2812 3.86012 13.2056 3.92627 13.2812L4.97045 15.0529C5.49017 15.9743 6.05242 14.9159 6.49183 14.3584C6.78476 13.9899 7.04935 13.6166 7.35174 13.2717C7.72027 13.5977 8.82115 15.3128 9.12353 15.3884C9.60073 15.516 9.80862 14.9301 10.0968 14.4434L10.815 13.2481C10.815 13.2434 10.8245 13.2339 10.8339 13.2292C11.2213 13.6119 11.5379 14.4009 11.6182 15.034C11.6513 15.3081 11.604 15.5774 11.7883 15.7617C12.1616 16.1444 12.6293 15.6294 12.9317 15.3979C13.2813 15.1333 13.5837 14.8781 13.9334 14.6419C14.1554 14.8451 14.5996 15.5679 14.883 15.8798C14.7271 16.2861 13.3569 17.9681 12.8183 18.2894C12.2088 18.6532 10.9945 17.4106 10.6213 17.0893C10.4654 16.957 10.2575 16.7869 9.96927 16.9618C9.61491 17.1838 9.74248 18.0154 9.74248 18.5304C9.74248 19.0737 9.61018 19.8486 10.2244 19.8439C10.8717 19.8392 10.6307 19.0076 10.7063 18.4737C10.867 18.6249 11.4623 18.9981 11.7458 19.1257C12.2466 19.3572 12.5679 19.4281 13.0971 19.2013C13.9523 18.8422 15.0815 17.283 15.6532 16.4704C15.9886 15.9979 16.0973 15.9459 16.48 15.5443C16.9714 15.034 17.1604 14.2639 16.8296 13.5599C16.7163 13.3237 16.5698 13.2008 16.4753 13.0307C17.0564 12.1378 17.6801 11.2684 18.2754 10.3612L19.6503 8.33903C19.9811 7.78151 19.2724 7.12949 18.7904 7.88545C18.6298 8.13587 18.4833 8.32486 18.3321 8.55637C18.0297 9.00523 17.7226 9.46353 17.4202 9.91238C17.0139 10.5124 15.9556 12.1141 15.5776 12.6055C14.9161 12.6622 14.4956 12.6244 13.8956 13.3898C13.7538 13.5694 13.4373 13.7962 13.2199 13.9568L12.4781 14.5096C12.3364 13.6261 11.7694 12.7473 11.33 12.3598C10.8859 11.9724 10.8575 12.0007 10.3378 11.7267C10.0543 11.5755 9.54404 11.2684 9.26527 11.1739C9.26527 9.22257 9.11881 9.5911 9.64798 9.19422C10.0732 8.87293 10.3614 8.50912 10.6591 8.0272C11.3867 7.96577 12.5679 8.28706 13.0026 7.00664C13.1349 6.62394 13.1065 5.88215 12.9742 5.51834C12.7805 4.96081 12.3033 4.786 12.1474 4.64898C12.5065 3.92136 12.6718 3.5292 12.5915 2.51338C12.4309 0.434472 11.4198 0.184059 9.88422 0.977822C9.66688 1.09594 9.44009 0.921125 9.00541 0.722684C7.92344 0.240756 7.04935 0.0139664 5.85398 0.212407C4.45545 0.443922 3.39237 0.977822 2.90099 2.38108C2.65531 3.07563 2.52301 3.92609 2.91517 4.53086Z" fill="#8FB9AB"/>
<path fill-rule="evenodd" clip-rule="evenodd" d="M4.31365 16.9288C3.88842 17.1036 4.01599 17.8832 4.01599 18.5683C4.01599 18.7809 3.99236 19.3621 4.04906 19.5322C4.12466 19.7542 4.39397 19.9291 4.68218 19.8062C5.11686 19.6267 4.97039 18.7101 4.97039 18.1714C4.97039 17.9447 4.99402 17.4013 4.94204 17.2218C4.8759 16.9997 4.60658 16.806 4.31365 16.9288Z" fill="#8FB9AB"/>
</g>
<defs>
<clipPath id="clip0_1003_1804">
<rect width="20" height="20" fill="white"/>
</clipPath>
</defs>
</svg>
