<svg width="10" height="10" viewBox="0 0 10 10" fill="none" xmlns="http://www.w3.org/2000/svg">
<g clip-path="url(#clip0_1003_2072)">
<path d="M9.66797 4.3957L9.33164 4.4168C9.22871 3.64551 8.92559 2.93945 8.475 2.34961L8.72793 2.12637C8.86309 2.00703 8.86953 1.79844 8.74219 1.67109L8.32891 1.25781C8.20137 1.13027 7.99277 1.13691 7.87363 1.27207L7.65039 1.5248C7.06055 1.07441 6.35449 0.771289 5.5834 0.668164L5.6043 0.332031C5.61562 0.152148 5.47266 0 5.29238 0H4.70762C4.52734 0 4.38457 0.152148 4.3957 0.332031L4.4168 0.668359C3.64551 0.771289 2.93945 1.07441 2.3498 1.525L2.12656 1.27207C2.00723 1.13691 1.79863 1.13047 1.67129 1.25781L1.25781 1.67109C1.13027 1.79863 1.13691 2.00723 1.27207 2.12637L1.525 2.34961C1.07461 2.93945 0.771484 3.64551 0.668359 4.4168L0.332031 4.3957C0.152148 4.38438 0 4.52734 0 4.70762V5.29238C0 5.47266 0.152148 5.61543 0.332031 5.6043L0.668359 5.5832C0.771289 6.35449 1.07441 7.06055 1.525 7.6502L1.27207 7.87344C1.13691 7.99277 1.13047 8.20137 1.25781 8.32871L1.67129 8.74219C1.79883 8.86973 2.00742 8.86309 2.12656 8.72793L2.3498 8.475C2.93965 8.92539 3.6457 9.22852 4.41699 9.33164L4.3957 9.66797C4.38438 9.84785 4.52734 10 4.70762 10H5.29238C5.47266 10 5.61543 9.84785 5.6043 9.66797L5.5832 9.33164C6.35449 9.22871 7.06055 8.92559 7.65039 8.475L7.87363 8.72793C7.99297 8.86309 8.20156 8.86953 8.32891 8.74219L8.74238 8.32871C8.86992 8.20117 8.86328 7.99258 8.72812 7.87344L8.47519 7.6502C8.92559 7.06035 9.22871 6.3543 9.33184 5.5832L9.66816 5.6043C9.84805 5.61562 10.0002 5.47266 10.0002 5.29238V4.70762C10 4.52734 9.84785 4.38457 9.66797 4.3957ZM5.50469 1.92598C5.98926 2.00547 6.43496 2.19277 6.81777 2.46855L5.98535 3.41172C5.81484 3.30547 5.62754 3.22539 5.42637 3.17832L5.50469 1.92598ZM4.49531 1.92598L4.57363 3.17832C4.37266 3.22539 4.18516 3.30566 4.01465 3.41172L3.18223 2.46855C3.56504 2.19277 4.01074 2.00547 4.49531 1.92598ZM2.46855 3.18242L3.41191 4.01465C3.30566 4.18516 3.22559 4.37266 3.17832 4.57363L1.92598 4.49531C2.00547 4.01074 2.19277 3.56523 2.46855 3.18242ZM1.92598 5.50469L3.17832 5.42637C3.22539 5.62734 3.30566 5.81484 3.41172 5.98535L2.46855 6.81777C2.19277 6.43496 2.00547 5.98926 1.92598 5.50469ZM4.49531 8.07402C4.01074 7.99453 3.56504 7.80723 3.18223 7.53145L4.01445 6.58809C4.18496 6.69434 4.37246 6.77441 4.57344 6.82168L4.49531 8.07402ZM5 5.625C4.65488 5.625 4.375 5.34512 4.375 5C4.375 4.65488 4.65488 4.375 5 4.375C5.34512 4.375 5.625 4.65488 5.625 5C5.625 5.34512 5.34512 5.625 5 5.625ZM5.50469 8.07402L5.42637 6.82168C5.62734 6.77461 5.81484 6.69434 5.98535 6.58809L6.81758 7.53145C6.43477 7.80723 5.98926 7.99453 5.50469 8.07402ZM7.53145 6.81758L6.58828 5.98516C6.69453 5.81465 6.77461 5.62734 6.82168 5.42617L8.07402 5.50449C7.99453 5.98926 7.80723 6.43496 7.53145 6.81758ZM6.82168 4.57363C6.77461 4.37266 6.69434 4.18516 6.58809 4.01465L7.53145 3.18242C7.80723 3.56523 7.99453 4.01094 8.07402 4.49551L6.82168 4.57363Z" fill="white"/>
</g>
<defs>
<clipPath id="clip0_1003_2072">
<rect width="10" height="10" fill="white"/>
</clipPath>
</defs>
</svg>
