<svg width="10" height="10" viewBox="0 0 10 10" fill="none" xmlns="http://www.w3.org/2000/svg">
<g clip-path="url(#clip0_3132_1772)">
<path fill-rule="evenodd" clip-rule="evenodd" d="M7.65115 6.37229C7.65115 6.17979 7.8074 6.02344 8.00001 6.02344C8.19261 6.02344 8.34886 6.17979 8.34886 6.37229V9.62813C8.34886 9.82063 8.19261 9.97698 8.00001 9.97698C7.8074 9.97698 7.65115 9.82063 7.65115 9.62813V6.37229Z" fill="white"/>
<path fill-rule="evenodd" clip-rule="evenodd" d="M6.37208 8.34908C6.17958 8.34908 6.02322 8.19283 6.02322 8.00022C6.02322 7.80762 6.17958 7.65137 6.37208 7.65137H9.62791C9.82041 7.65137 9.97677 7.80762 9.97677 8.00022C9.97677 8.19283 9.82041 8.34908 9.62791 8.34908H6.37208Z" fill="white"/>
<path fill-rule="evenodd" clip-rule="evenodd" d="M4.27907 -0.0234375C5.69116 -0.0234375 6.8372 1.1226 6.8372 2.53469C6.8372 3.94677 5.69116 5.09281 4.27907 5.09281C2.86699 5.09281 1.72095 3.94677 1.72095 2.53469C1.72095 1.1226 2.86699 -0.0234375 4.27907 -0.0234375ZM4.27907 0.674167C3.25209 0.674167 2.41866 1.50771 2.41866 2.53469C2.41866 3.56167 3.25209 4.3951 4.27907 4.3951C5.30605 4.3951 6.13959 3.56167 6.13959 2.53469C6.13959 1.50771 5.30605 0.674167 4.27907 0.674167Z" fill="white"/>
<path fill-rule="evenodd" clip-rule="evenodd" d="M0.32563 9.97724C0.213443 9.97724 0.113443 9.92422 0.0492761 9.84141C0.0143803 9.79953 -0.012078 9.74464 -0.0204114 9.67255C-0.0222864 9.65859 -0.0232239 9.6437 -0.0232239 9.62839C-0.0232239 9.62651 -0.0232239 9.62464 -0.0232239 9.62276V9.16328C-0.0232239 7.17255 1.59073 5.55859 3.58136 5.55859H6.13959C6.33209 5.55859 6.48834 5.71484 6.48834 5.90745C6.48834 6.10005 6.33209 6.2563 6.13959 6.2563H3.58136C1.97584 6.2563 0.67438 7.55766 0.67438 9.16328V9.62276C0.67438 9.95214 0.32563 9.97724 0.32563 9.97724Z" fill="white"/>
</g>
<defs>
<clipPath id="clip0_3132_1772">
<rect width="10" height="10" fill="white"/>
</clipPath>
</defs>
</svg>
