<svg width="20" height="20" viewBox="0 0 20 20" fill="none" xmlns="http://www.w3.org/2000/svg">
<g clip-path="url(#clip0_3132_1770)">
<path d="M10.0002 19.4567C4.78563 19.4567 0.542921 15.2135 0.542921 10.0002C0.542921 6.55542 2.39542 3.53458 5.15625 1.88125C5.26105 1.95833 5.39292 2.01083 5.56084 2.01083C5.56084 2.01083 5.74209 2.01083 4.58313 2.91604C3.42375 3.82229 3.53188 5.07875 3.89396 4.28792C4.25688 3.49604 4.58313 3.78604 4.00313 4.90958C3.42375 6.03333 4.30834 5.67062 4.60792 6.35854C4.90896 7.04667 5.01771 6.21417 5.16209 7.51875C5.16209 7.51875 5.52584 7.95312 6.17709 7.73583C6.82938 7.51875 6.06855 8.31458 5.38 8.96771C4.69125 9.62021 4.90855 9.83646 5.27126 10.2356C5.63355 10.6348 5.77896 10.96 5.45271 11.3954C5.12688 11.83 5.9598 11.9746 6.17709 12.2281C6.39438 12.4819 6.35792 13.3154 5.85125 13.6781C5.34459 14.0398 6.1048 14.8371 5.99521 15.9608C5.88667 17.0831 5.91334 17.5542 6.42542 17.6269C6.93792 17.6994 6.35792 16.6487 6.57521 16.1779C6.79292 15.7071 7.04709 16.5044 7.55396 15.236C7.55396 15.236 8.46063 15.4533 8.8575 14.0762C8.8575 14.0762 9.6548 13.9671 9.80021 13.5327C9.94584 13.0981 9.76396 12.8081 10.9229 11.8665C12.0817 10.9237 10.1256 10.1992 9.07584 10.1629C9.07584 10.1629 8.69063 10.3202 9.36563 9.11208C9.66 8.58458 8.78563 8.71396 8.56855 8.24312C8.35125 7.77208 7.84417 7.22875 6.82938 7.33687C5.8148 7.44583 5.52396 7.80875 5.48896 7.19208C5.45271 6.57583 5.92292 6.28687 5.41584 6.21417C4.90896 6.14125 5.16209 6.105 5.70688 5.59771C5.70688 5.59771 5.38 5.37937 5.05396 5.70687C4.72771 6.03333 4.14771 5.52604 4.83625 4.80167C5.52584 4.07604 6.61167 3.53229 6.53938 4.90958C6.46709 6.28687 6.97438 4.28792 6.97438 4.28792C6.97438 4.28792 7.73521 3.31521 8.67771 3.24333C9.61834 3.17083 9.03938 3.13437 9.03938 2.80792C9.03938 2.48271 9.47396 3.35146 10.0002 3.13437C10.5246 2.91604 9.4375 2.84458 9.54667 2.48271C9.6548 2.12 10.2721 2.22792 10.5246 2.7C10.7783 3.17083 11.0683 2.44625 10.4167 1.68437C9.76396 0.924583 9.87313 1.39542 9.25667 1.72062C8.64126 2.04708 8.89501 2.22792 8.78563 1.68437C8.67771 1.14187 8.64125 1.72062 8.35125 1.43187C8.06042 1.14187 8.86834 1.27562 9.29313 1.3225C9.71792 1.36854 9.58313 1.06896 9.58313 1.06896L10.0002 0.888125C10.0002 0.888125 10.2721 1.28625 10.5975 1.21354C10.9229 1.14187 10.3802 0.633542 10.7054 0.70625C11.0319 0.778958 11.4665 0.489167 11.5029 0.924583C11.5392 1.35896 11.2492 1.93896 12.4456 1.28625C12.6875 1.15458 12.849 1.06896 12.959 1.01771C13.0406 1.04437 13.1198 1.07229 13.2 1.10208C13.2073 1.18875 13.2352 1.30146 13.3873 1.39542C13.8581 1.68437 13.7138 1.43062 14.329 1.79354C14.9454 2.15646 14.5463 2.55458 15.0171 2.62708C15.4879 2.7 15.9233 3.35146 15.5619 3.38792C15.199 3.42417 15.1625 2.99 14.62 2.91604C14.0754 2.84458 14.8375 3.09687 15.199 3.42417C15.5619 3.74979 15.5619 4.13604 15.199 4.28792C14.8375 4.43896 15.1048 5.2725 15.6954 5.16333C16.2863 5.05417 16.0679 4.43896 16.3942 4.58437C16.7206 4.72875 16.6115 5.09042 17.1552 5.30875C17.6998 5.52604 17.0823 5.815 17.7352 5.85125C18.3879 5.88792 18.7131 6.14125 18.1331 6.395C17.5533 6.64979 17.8442 6.86583 17.3358 6.24937C16.8288 5.63417 16.879 6.22375 16.8288 5.63417C16.7796 5.04458 15.96 5.59771 15.5252 5.67062C15.09 5.74312 15.4525 6.17771 15.0533 6.24937C14.6542 6.32229 14.4735 6.21417 14.5825 7.15583C14.6906 8.09875 14.4381 8.31458 14.0025 8.31458C13.5681 8.31458 14.3663 8.82208 14.5825 9.47479C14.7998 10.1265 14.8375 10.5254 15.779 10.2721C16.7206 10.0183 16.4306 10.0183 16.5398 10.5254C16.6477 11.0329 17.0471 10.2356 17.1188 10.7429C17.1915 11.25 16.2133 11.3592 16.7558 11.6844C17.2996 12.01 16.9027 12.7719 16.6477 12.9525C16.3942 13.1344 16.5752 13.7852 16.0325 14.0762C15.4879 14.3662 16.2863 14.8723 15.96 15.1998C15.6346 15.526 14.7635 15.9242 15.09 16.7217C15.4173 17.5177 15.4173 17.0469 16.1052 16.4667C16.7923 15.8879 17.3735 14.9098 17.6998 14.9462C17.8165 14.9592 17.8721 15.05 17.9415 15.1271C16.2542 17.7306 13.325 19.4567 10.0002 19.4567ZM10.0002 0C4.48542 0 -0.000411987 4.48583 -0.000411987 10.0002C-0.000411987 15.5133 4.48542 20.0002 10.0002 20.0002C15.5138 20.0002 19.9996 15.5133 19.9996 10.0002C19.9996 4.48583 15.5138 0 10.0002 0Z" fill="#8FB9AB"/>
</g>
<defs>
<clipPath id="clip0_3132_1770">
<rect width="20" height="20" fill="white"/>
</clipPath>
</defs>
</svg>
