<svg width="20" height="20" viewBox="0 0 20 20" fill="none" xmlns="http://www.w3.org/2000/svg">
<g clip-path="url(#clip0_1003_1978)">
<path fill-rule="evenodd" clip-rule="evenodd" d="M13.0178 6.15412C13.7279 6.15412 14.3196 6.15412 14.6746 6.98252C14.9113 7.57423 14.793 8.16595 14.3196 8.52098C14.3196 8.63932 14.3196 8.63932 14.2013 8.75767C14.4379 9.34938 15.0297 10.5328 15.3847 11.1245C15.503 11.4796 15.8581 12.1896 15.9764 12.5446C16.0947 13.7281 14.793 14.3198 13.8462 13.3731C13.3728 12.8997 12.7811 12.663 12.0711 12.5446C11.2427 12.5446 9.9409 12.5446 9.11249 12.8997C9.11249 12.8997 9.11249 13.018 9.11249 13.1364C9.11249 13.6097 8.75746 13.8464 8.40243 14.0831L8.28409 14.2015L8.40243 14.3198C8.52078 14.5565 8.52078 14.6748 8.63912 14.7932C8.75746 15.1482 8.87581 15.5032 9.11249 15.7399C9.23084 16.2133 9.34918 16.45 9.34918 16.9233C9.34918 17.9884 8.16575 18.4618 7.33735 17.8701C6.86397 17.5151 5.5622 15.2665 5.08882 14.5565C4.85214 14.5565 4.61545 14.6748 4.26042 14.6748C1.53853 14.5565 0.47344 11.1245 2.72196 9.46773C3.19533 9.1127 3.90539 8.87601 4.49711 8.52098C5.08882 8.28429 5.68054 7.92926 6.27226 7.69258C7.33735 6.98252 8.16575 6.15412 8.87581 5.08903C9.46752 4.02394 8.99415 3.55057 9.23084 2.84051C9.46752 1.89376 10.8876 1.77542 11.361 2.72216L13.0178 6.15412ZM13.3728 6.98252C13.3728 6.98252 13.9646 6.74583 14.2013 7.33755C14.2013 7.33755 14.3196 7.81092 13.8462 8.04761L13.3728 6.98252ZM7.81072 13.2547L8.52078 13.018C8.52078 13.018 8.63912 13.2547 8.52078 13.3731C8.52078 13.3731 8.52078 13.4914 8.0474 13.6097L7.81072 13.2547ZM6.03557 9.23104C6.27226 10.1778 6.98232 11.2429 7.33735 12.1896L8.0474 11.9529C10.0592 11.2429 12.8995 10.8878 14.6746 12.4263C14.5563 12.4263 14.5563 12.308 14.5563 12.308L10.5326 3.66891C10.5326 3.66891 10.4143 3.55057 10.4143 3.43222V3.55057C10.4143 4.97068 9.70421 6.27246 8.75746 7.2192C8.28409 7.69258 7.81072 8.04761 7.33735 8.40264C7.10066 8.52098 6.86397 8.75767 6.62729 8.87601C6.3906 8.99435 6.15391 9.1127 6.03557 9.23104ZM6.27226 12.663C6.03557 12.0713 5.44385 11.0062 5.20717 10.4145C5.08882 10.1778 4.97048 9.9411 4.85214 9.70441L4.14208 10.0594C3.78705 10.2961 3.55036 10.4145 3.19533 10.6512C2.13024 11.4796 2.8403 13.6097 4.49711 13.3731C4.85214 13.3731 5.68054 12.8997 6.27226 12.663ZM6.27226 14.0831C6.50894 14.5565 6.86397 15.1482 7.219 15.5032C7.45569 15.9766 7.69238 16.3316 8.0474 16.805C8.0474 16.805 8.0474 16.9233 8.16575 16.9233C8.28409 16.805 8.0474 16.45 8.0474 16.45C7.69238 15.7399 7.219 14.5565 6.86397 13.8464L6.27226 14.0831ZM16.8048 4.97068C17.5149 4.734 18.1066 5.5624 17.2782 6.15412C17.1598 6.27246 17.0415 6.3908 16.8048 6.50915C16.6865 6.50915 16.4498 6.62749 16.3314 6.74583C15.9764 6.86418 15.503 6.74583 15.3847 6.3908C15.2663 5.79909 15.8581 5.44406 16.2131 5.20737C16.4498 5.08903 16.5681 4.97068 16.8048 4.97068ZM16.9231 10.5328C17.2782 10.4145 17.9882 10.6512 18.2249 10.7695C18.8166 10.8878 19.1717 11.2429 18.935 11.8346C18.58 12.4263 17.6332 11.9529 17.1598 11.8346C16.3314 11.5979 16.3314 10.8878 16.9231 10.5328ZM13.6095 0.828672C13.9646 0.591986 14.4379 0.828672 14.4379 1.1837C14.5563 1.53873 14.4379 1.65707 14.2013 1.89376C14.0829 2.13045 13.7279 2.84051 13.4912 2.95885C13.0178 3.07719 12.6628 2.84051 12.5444 2.48548C12.4261 2.0121 12.8995 1.53873 13.1362 1.30204C13.2545 1.06536 13.3728 0.828672 13.6095 0.828672Z" fill="#8FB9AB"/>
</g>
<defs>
<clipPath id="clip0_1003_1978">
<rect width="20" height="20" fill="white"/>
</clipPath>
</defs>
</svg>
