<svg width="10" height="10" viewBox="0 0 10 10" fill="none" xmlns="http://www.w3.org/2000/svg">
<g clip-path="url(#clip0_1003_2091)">
<path d="M8.40398 5.133C8.45169 5.05488 8.51304 4.98436 8.58961 4.92665C8.94034 4.66217 9.4569 4.75592 9.74325 5.13602C9.99971 5.47644 9.98398 5.9304 9.72627 6.21165C9.41648 5.70915 8.95159 5.32394 8.40398 5.133ZM9.73346 7.10269C9.77554 7.28373 9.80044 7.47217 9.80044 7.66717C9.80044 8.9554 8.8245 9.99967 7.62075 9.99967C6.417 9.99967 5.44117 8.9554 5.44117 7.66717C5.44117 7.47217 5.46596 7.28373 5.50815 7.10269H5.94398C6.32794 7.10269 6.68981 6.93404 6.93669 6.63988L6.96325 6.60831C7.20627 6.9179 7.57867 7.10269 7.9819 7.10269H9.73346ZM7.09377 7.84092C7.09377 7.70061 6.97971 7.58654 6.8395 7.58654C6.6994 7.58654 6.58534 7.70061 6.58534 7.84092C6.58534 7.98113 6.6994 8.09529 6.8395 8.09529C6.97971 8.09529 7.09377 7.98113 7.09377 7.84092ZM8.20356 8.67123C8.20356 8.57873 8.12867 8.50373 8.03617 8.50373C7.95117 8.50373 7.88086 8.56717 7.87023 8.64936C7.84534 8.67009 7.75961 8.71154 7.62075 8.71154C7.4819 8.71154 7.39617 8.67009 7.37138 8.64936C7.36065 8.56717 7.29044 8.50373 7.20534 8.50373C7.11294 8.50373 7.03794 8.57873 7.03794 8.67123C7.03794 8.88863 7.28304 9.04644 7.62075 9.04644C7.95846 9.04644 8.20356 8.88863 8.20356 8.67123ZM8.65627 7.84092C8.65627 7.70061 8.54221 7.58654 8.402 7.58654C8.2619 7.58654 8.14784 7.70061 8.14784 7.84092C8.14784 7.98113 8.2619 8.09529 8.402 8.09529C8.54221 8.09529 8.65627 7.98113 8.65627 7.84092ZM6.68034 6.42446L6.85231 6.21956C6.88804 6.17675 6.94221 6.15488 6.99867 6.16081C7.05429 6.16686 7.10315 6.20029 7.12898 6.24988C7.29523 6.56936 7.622 6.76769 7.9819 6.76769H9.632C9.30294 5.92623 8.52659 5.33477 7.62075 5.33477C6.71502 5.33477 5.93856 5.92623 5.6095 6.76769H5.94398C6.22877 6.76769 6.49711 6.64259 6.68034 6.42446ZM4.29742 7.10269C4.3395 7.28373 4.3644 7.47217 4.3644 7.66717C4.3644 8.9554 3.38856 9.99967 2.18471 9.99967C0.98096 9.99967 0.00512695 8.9554 0.00512695 7.66717C0.00512695 7.47217 0.0299186 7.28373 0.0721061 7.10269H1.82367C2.2269 7.10269 2.5994 6.9179 2.84231 6.60831L2.86877 6.63988C3.11575 6.93404 3.47763 7.10269 3.86148 7.10269H4.29742ZM1.65773 7.84092C1.65773 7.70061 1.54367 7.58654 1.40346 7.58654C1.26336 7.58654 1.14929 7.70061 1.14929 7.84092C1.14929 7.98113 1.26336 8.09529 1.40346 8.09529C1.54367 8.09529 1.65773 7.98113 1.65773 7.84092ZM2.76763 8.67123C2.76763 8.57873 2.69263 8.50373 2.60023 8.50373C2.51513 8.50373 2.44492 8.56717 2.43419 8.64936C2.4094 8.67009 2.32367 8.71154 2.18471 8.71154C2.04586 8.71154 1.96013 8.67009 1.93534 8.64936C1.92461 8.56717 1.8544 8.50373 1.76929 8.50373C1.67679 8.50373 1.6019 8.57873 1.6019 8.67123C1.6019 8.88863 1.847 9.04644 2.18471 9.04644C2.52252 9.04644 2.76763 8.88863 2.76763 8.67123ZM3.22023 7.84092C3.22023 7.70061 3.10617 7.58654 2.96596 7.58654C2.82586 7.58654 2.71179 7.70061 2.71179 7.84092C2.71179 7.98113 2.82586 8.09529 2.96596 8.09529C3.10617 8.09529 3.22023 7.98113 3.22023 7.84092ZM1.5469 6.31509C1.59586 6.23665 1.69909 6.21279 1.77752 6.26165C1.85596 6.31061 1.87992 6.41384 1.83096 6.49238C1.76606 6.59644 1.68742 6.688 1.5995 6.76769H1.82367C2.18356 6.76769 2.51034 6.56936 2.67648 6.24988C2.70231 6.2004 2.75117 6.16686 2.80669 6.16081C2.86242 6.15467 2.91721 6.17675 2.95315 6.21956L3.12513 6.42446C3.30836 6.64259 3.57669 6.76769 3.86148 6.76769H4.19596C3.8669 5.92623 3.09054 5.33477 2.18471 5.33477C1.27898 5.33477 0.502627 5.92623 0.173564 6.76769H0.731169C1.06523 6.76769 1.37013 6.59852 1.5469 6.31509Z" fill="#ADCED8"/>
</g>
<defs>
<clipPath id="clip0_1003_2091">
<rect width="10" height="10" fill="white"/>
</clipPath>
</defs>
</svg>
