<svg width="20" height="20" viewBox="0 0 20 20" fill="none" xmlns="http://www.w3.org/2000/svg">
<g clip-path="url(#clip0_1003_1943)">
<path d="M10.008 4.9502C7.90471 4.9502 6.19971 6.73957 6.19971 8.94686C6.19971 11.1544 7.90471 12.9437 10.008 12.9437C12.1114 12.9437 13.8162 11.1544 13.8162 8.94686C13.8162 6.73957 12.1114 4.9502 10.008 4.9502Z" fill="#8FB9AB"/>
<mask id="mask0_1003_1943" style="mask-type:luminance" maskUnits="userSpaceOnUse" x="0" y="0" width="20" height="20">
<path d="M0.487549 0H19.5275V20H0.487549V0Z" fill="white"/>
</mask>
<g mask="url(#mask0_1003_1943)">
<path d="M16.3328 16.8978C15.4894 14.8407 13.7188 13.5541 10.0023 13.5541C6.29067 13.5541 4.52005 14.8374 3.67547 16.8899C1.95609 15.1486 0.886716 12.7053 0.886716 9.9999C0.886716 4.71281 4.97047 0.426771 10.0082 0.426771C15.0459 0.426771 19.1296 4.71281 19.1296 9.9999C19.1296 12.7097 18.0567 15.1564 16.3328 16.8978ZM10.0082 0.0078125C4.75005 0.0078125 0.487549 4.48156 0.487549 9.9999C0.487549 12.8861 1.65359 15.4868 3.51838 17.3109C5.2188 18.9743 7.50005 19.992 10.0082 19.992C12.5117 19.992 14.7896 18.9776 16.4892 17.3191C18.3588 15.4947 19.5288 12.8907 19.5288 9.9999C19.5288 4.48156 15.2661 0.0078125 10.0082 0.0078125Z" fill="#8FB9AB"/>
</g>
</g>
<defs>
<clipPath id="clip0_1003_1943">
<rect width="20" height="20" fill="white"/>
</clipPath>
</defs>
</svg>
