<svg width="20" height="20" viewBox="0 0 20 20" fill="none" xmlns="http://www.w3.org/2000/svg">
<mask id="mask0_1534_21" style="mask-type:luminance" maskUnits="userSpaceOnUse" x="0" y="1" width="20" height="18">
<path d="M0.0605469 1H19.9405V19H0.0605469V1Z" fill="white"/>
</mask>
<g mask="url(#mask0_1534_21)">
<path d="M17.5739 1.00684H2.42721C2.34971 1.00704 2.27242 1.01079 2.19534 1.0185C2.11826 1.02621 2.0418 1.03767 1.96576 1.05288C1.88971 1.06809 1.81471 1.08684 1.74055 1.10934C1.66638 1.13204 1.59346 1.15809 1.52201 1.18788C1.45034 1.21746 1.38055 1.25059 1.31221 1.28725C1.24388 1.32371 1.17742 1.3635 1.11305 1.40663C1.04867 1.44975 0.986588 1.49579 0.926588 1.54496C0.866797 1.59413 0.809297 1.646 0.754505 1.70079C0.699714 1.75559 0.647839 1.81309 0.598672 1.87288C0.549505 1.93288 0.503255 1.99496 0.460339 2.05934C0.417213 2.12371 0.377422 2.19017 0.340755 2.2585C0.304297 2.32684 0.271172 2.39663 0.24138 2.46829C0.211797 2.53975 0.185755 2.61267 0.163047 2.68684C0.140547 2.761 0.121797 2.836 0.106589 2.91204C0.0913802 2.98788 0.0799219 3.06454 0.0722135 3.14163C0.0645052 3.21871 0.0607552 3.296 0.0605469 3.3735V18.5198C0.0605469 18.5664 0.0674219 18.6123 0.0809636 18.657C0.0945052 18.7018 0.114297 18.7437 0.140339 18.7827C0.16638 18.8216 0.197422 18.8558 0.233672 18.8856C0.269922 18.9152 0.309505 18.9389 0.352839 18.9568C0.395964 18.9748 0.440964 18.986 0.487422 18.9906C0.534088 18.9952 0.580339 18.9931 0.626172 18.9839C0.672213 18.9748 0.715755 18.9591 0.757005 18.937C0.798255 18.915 0.835547 18.8875 0.868672 18.8543L4.51659 15.2064H17.5739C17.6514 15.2064 17.7287 15.2025 17.8058 15.1948C17.8828 15.187 17.9595 15.1758 18.0353 15.1606C18.1114 15.1454 18.1864 15.1264 18.2605 15.1039C18.3347 15.0814 18.4076 15.0552 18.4791 15.0256C18.5508 14.9958 18.6208 14.9627 18.6891 14.9262C18.7574 14.8895 18.8237 14.8498 18.888 14.8068C18.9524 14.7637 19.0147 14.7177 19.0745 14.6685C19.1345 14.6193 19.1918 14.5673 19.2466 14.5125C19.3014 14.4577 19.3533 14.4004 19.4024 14.3404C19.4516 14.2806 19.4978 14.2185 19.541 14.1541C19.5839 14.0895 19.6237 14.0233 19.6603 13.955C19.6968 13.8866 19.7299 13.8166 19.7597 13.7452C19.7893 13.6735 19.8155 13.6006 19.838 13.5266C19.8605 13.4525 19.8795 13.3775 19.8947 13.3014C19.9099 13.2254 19.9212 13.1489 19.9289 13.0718C19.9366 12.9948 19.9405 12.9173 19.9405 12.84V3.3735C19.9405 3.296 19.9366 3.21871 19.9289 3.14163C19.9212 3.06454 19.9099 2.98788 19.8947 2.91204C19.8795 2.836 19.8605 2.761 19.838 2.68684C19.8155 2.61267 19.7893 2.53975 19.7597 2.46829C19.7299 2.39663 19.6968 2.32684 19.6603 2.2585C19.6237 2.19017 19.5839 2.12371 19.541 2.05934C19.4978 1.99496 19.4516 1.93288 19.4024 1.87288C19.3533 1.81309 19.3014 1.75559 19.2466 1.70079C19.1918 1.646 19.1345 1.59413 19.0745 1.54496C19.0147 1.49579 18.9524 1.44975 18.888 1.40663C18.8237 1.3635 18.7574 1.32371 18.6891 1.28725C18.6208 1.25059 18.5508 1.21746 18.4791 1.18788C18.4076 1.15809 18.3347 1.13204 18.2605 1.10934C18.1864 1.08684 18.1114 1.06809 18.0353 1.05288C17.9595 1.03767 17.8828 1.02621 17.8058 1.0185C17.7287 1.01079 17.6514 1.00704 17.5739 1.00684ZM18.9939 12.84C18.9939 12.8864 18.9916 12.9327 18.987 12.9789C18.9824 13.0252 18.9755 13.0712 18.9664 13.1168C18.9572 13.1625 18.946 13.2075 18.9324 13.2518C18.9189 13.2964 18.9033 13.3402 18.8853 13.3831C18.8676 13.426 18.8476 13.4679 18.8258 13.5089C18.8039 13.55 18.7799 13.5898 18.7541 13.6283C18.7283 13.667 18.7005 13.7043 18.6712 13.7402C18.6416 13.7762 18.6103 13.8106 18.5776 13.8435C18.5447 13.8764 18.5103 13.9075 18.4743 13.937C18.4385 13.9666 18.4012 13.9941 18.3624 14.02C18.3239 14.0458 18.2839 14.0698 18.243 14.0916C18.202 14.1137 18.1599 14.1335 18.117 14.1514C18.0741 14.1691 18.0303 14.1848 17.986 14.1983C17.9414 14.2118 17.8964 14.2231 17.8508 14.2323C17.8053 14.2414 17.7593 14.2483 17.713 14.2529C17.6668 14.2575 17.6203 14.2598 17.5739 14.2598H4.32055C4.25784 14.2598 4.19742 14.2718 4.1395 14.2958C4.08138 14.32 4.03034 14.3541 3.98596 14.3985L1.00721 17.377V3.3735C1.00721 3.32704 1.00971 3.28059 1.0143 3.23434C1.01888 3.18809 1.02576 3.14225 1.03471 3.09663C1.04388 3.051 1.05513 3.006 1.06867 2.96142C1.08221 2.91704 1.09784 2.87329 1.11576 2.83038C1.13346 2.78746 1.15346 2.74538 1.17534 2.70454C1.19721 2.6635 1.22117 2.62371 1.24701 2.58496C1.27284 2.54642 1.30055 2.50913 1.33013 2.47309C1.35951 2.43725 1.39076 2.40267 1.42367 2.36996C1.45638 2.33704 1.49096 2.30579 1.5268 2.27642C1.56284 2.24684 1.60013 2.21913 1.63867 2.19329C1.67742 2.16746 1.71721 2.1435 1.75826 2.12163C1.79909 2.09975 1.84117 2.07996 1.88409 2.06204C1.92701 2.04434 1.97076 2.0285 2.01513 2.01496C2.05971 2.00142 2.10471 1.99017 2.15034 1.981C2.19596 1.97204 2.2418 1.96517 2.28805 1.96059C2.3343 1.956 2.38076 1.9535 2.42721 1.9535H17.5739C17.6203 1.9535 17.6668 1.956 17.713 1.96059C17.7593 1.96517 17.8053 1.97204 17.8508 1.981C17.8964 1.99017 17.9414 2.00142 17.986 2.01496C18.0303 2.0285 18.0741 2.04434 18.117 2.06204C18.1601 2.07996 18.202 2.09975 18.243 2.12163C18.2839 2.1435 18.3239 2.16746 18.3624 2.19329C18.4012 2.21913 18.4385 2.24684 18.4743 2.27642C18.5103 2.30579 18.5447 2.33704 18.5776 2.36996C18.6103 2.40267 18.6416 2.43725 18.6712 2.47309C18.7005 2.50913 18.7283 2.54642 18.7541 2.58496C18.7799 2.62371 18.8039 2.6635 18.8258 2.70454C18.8476 2.74538 18.8676 2.78746 18.8853 2.83038C18.9033 2.87329 18.9189 2.91704 18.9324 2.96142C18.946 3.006 18.9572 3.051 18.9664 3.09663C18.9755 3.14225 18.9824 3.18809 18.987 3.23434C18.9916 3.28059 18.9939 3.32704 18.9939 3.3735V12.84ZM16.1539 5.26684C16.1539 5.29788 16.151 5.32871 16.1449 5.35913C16.1389 5.38954 16.1299 5.41913 16.118 5.44788C16.106 5.47663 16.0916 5.50392 16.0743 5.52975C16.057 5.55559 16.0374 5.57954 16.0153 5.60163C15.9935 5.6235 15.9695 5.64309 15.9437 5.66038C15.9178 5.67767 15.8905 5.69225 15.8618 5.70413C15.833 5.716 15.8035 5.72496 15.7728 5.731C15.7424 5.73704 15.7116 5.74017 15.6805 5.74017H4.32055C4.28951 5.74017 4.25867 5.73704 4.22825 5.731C4.19784 5.72496 4.16825 5.716 4.1395 5.70413C4.11075 5.69225 4.08346 5.67767 4.05763 5.66038C4.0318 5.64309 4.00784 5.6235 3.98596 5.60142C3.96388 5.57954 3.9443 5.55559 3.92701 5.52975C3.90971 5.50392 3.89513 5.47663 3.88326 5.44788C3.87138 5.41913 3.86242 5.38954 3.85638 5.35913C3.85034 5.32871 3.84721 5.29788 3.84721 5.26684C3.84721 5.23579 3.85034 5.20496 3.85638 5.17434C3.86242 5.14392 3.87138 5.11434 3.88326 5.08559C3.89513 5.05684 3.90971 5.02975 3.92701 5.00371C3.9443 4.97788 3.96388 4.95413 3.98596 4.93204C4.00784 4.91017 4.0318 4.89059 4.05763 4.87329C4.08346 4.856 4.11075 4.84142 4.1395 4.82954C4.16825 4.81767 4.19784 4.80871 4.22825 4.80246C4.25867 4.79642 4.28951 4.7935 4.32055 4.7935H15.6805C15.7116 4.7935 15.7424 4.79642 15.7728 4.80246C15.8035 4.8085 15.833 4.81746 15.8618 4.82934C15.8905 4.84121 15.9178 4.85579 15.9437 4.87309C15.9695 4.89038 15.9935 4.90996 16.0153 4.93204C16.0374 4.95392 16.057 4.97788 16.0743 5.00371C16.0916 5.02954 16.106 5.05684 16.118 5.08559C16.1299 5.11434 16.1389 5.14392 16.1449 5.17434C16.151 5.20496 16.1539 5.23579 16.1539 5.26684ZM16.1539 8.10663C16.1539 8.13767 16.151 8.1685 16.1449 8.19913C16.1389 8.22954 16.1299 8.25913 16.118 8.28788C16.106 8.31663 16.0916 8.34392 16.0743 8.36975C16.057 8.39559 16.0374 8.41954 16.0153 8.44142C15.9935 8.4635 15.9695 8.48309 15.9437 8.50038C15.9178 8.51767 15.8905 8.53225 15.8618 8.54413C15.833 8.556 15.8035 8.56496 15.7728 8.571C15.7424 8.57704 15.7116 8.57996 15.6805 8.57996H4.32055C4.28951 8.57996 4.25867 8.57704 4.22825 8.571C4.19784 8.56475 4.16825 8.55579 4.1395 8.54392C4.11075 8.53204 4.08346 8.51746 4.05763 8.50017C4.0318 8.48288 4.00784 8.46329 3.98596 8.44142C3.96388 8.41934 3.9443 8.39559 3.92701 8.36975C3.90971 8.34371 3.89513 8.31663 3.88326 8.28788C3.87138 8.25913 3.86242 8.22954 3.85638 8.19913C3.85034 8.1685 3.84721 8.13767 3.84721 8.10663C3.84721 8.07559 3.85034 8.04475 3.85638 8.01434C3.86242 7.98392 3.87138 7.95434 3.88326 7.92559C3.89513 7.89684 3.90971 7.86954 3.92701 7.84371C3.9443 7.81788 3.96388 7.79392 3.98596 7.77204C4.00784 7.74996 4.0318 7.73038 4.05763 7.71309C4.08346 7.69579 4.11075 7.68121 4.1395 7.66934C4.16825 7.65746 4.19784 7.6485 4.22825 7.64246C4.25867 7.63642 4.28951 7.63329 4.32055 7.63329H15.6805C15.7116 7.63329 15.7424 7.63642 15.7728 7.64246C15.8035 7.6485 15.833 7.65746 15.8618 7.66934C15.8905 7.68121 15.9178 7.69579 15.9437 7.71309C15.9695 7.73038 15.9935 7.74996 16.0153 7.77184C16.0374 7.79392 16.057 7.81788 16.0743 7.84371C16.0916 7.86954 16.106 7.89684 16.118 7.92559C16.1299 7.95434 16.1389 7.98392 16.1449 8.01434C16.151 8.04475 16.1539 8.07559 16.1539 8.10663ZM16.1539 10.9466C16.1539 10.9777 16.151 11.0085 16.1449 11.0389C16.1389 11.0695 16.1299 11.0991 16.118 11.1277C16.106 11.1564 16.0916 11.1837 16.0743 11.2095C16.057 11.2354 16.0374 11.2593 16.0153 11.2814C15.9935 11.3033 15.9695 11.3229 15.9437 11.3402C15.9178 11.3575 15.8905 11.372 15.8618 11.3839C15.833 11.3958 15.8035 11.4048 15.7728 11.4108C15.7424 11.4168 15.7116 11.42 15.6805 11.42H4.32055C4.28951 11.42 4.25867 11.4168 4.22825 11.4108C4.19784 11.4048 4.16825 11.3958 4.1395 11.3839C4.11075 11.372 4.08346 11.3575 4.05763 11.3402C4.0318 11.3229 4.00784 11.3033 3.98596 11.2812C3.96388 11.2593 3.9443 11.2354 3.92701 11.2095C3.90971 11.1837 3.89513 11.1564 3.88326 11.1277C3.87138 11.0989 3.86242 11.0693 3.85638 11.0389C3.85034 11.0085 3.84721 10.9777 3.84721 10.9466C3.84721 10.9156 3.85034 10.8848 3.85638 10.8543C3.86242 10.8237 3.87138 10.7941 3.88326 10.7654C3.89513 10.7368 3.90971 10.7095 3.92701 10.6837C3.9443 10.6579 3.96388 10.6339 3.98596 10.6118C4.00784 10.59 4.0318 10.5704 4.05763 10.5531C4.08346 10.5358 4.11075 10.5212 4.1395 10.5093C4.16825 10.4975 4.19784 10.4885 4.22825 10.4825C4.25867 10.4762 4.28951 10.4733 4.32055 10.4733H15.6805C15.7116 10.4733 15.7424 10.4762 15.7728 10.4823C15.8035 10.4883 15.833 10.4973 15.8618 10.5093C15.8905 10.5212 15.9178 10.5358 15.9437 10.5529C15.9695 10.5702 15.9935 10.5898 16.0153 10.6118C16.0374 10.6337 16.057 10.6577 16.0743 10.6835C16.0916 10.7093 16.106 10.7366 16.118 10.7654C16.1299 10.7941 16.1389 10.8237 16.1449 10.8543C16.151 10.8848 16.1539 10.9156 16.1539 10.9466Z" fill="#8FB9AB"/>
</g>
</svg>
