<svg width="20" height="20" viewBox="0 0 20 20" fill="none" xmlns="http://www.w3.org/2000/svg">
<g clip-path="url(#clip0_1003_1831)">
<path d="M22 -2H-2V22H22V-2Z" fill="white"/>
<path d="M22 -2H-2V22H22V-2Z" fill="white"/>
<path d="M22 -2H-2V22H22V-2Z" fill="white"/>
<path d="M10.0074 19.095C9.28548 19.095 8.63548 18.6686 8.34423 18.0071L7.51465 18.3698C7.94944 19.3579 8.92652 19.9996 10.0074 19.9996C11.104 19.9996 12.0851 19.35 12.5119 18.3419L11.6784 17.9873C11.3913 18.6606 10.7371 19.095 10.0074 19.095Z" fill="#8FB9AB"/>
<mask id="mask0_1003_1831" style="mask-type:luminance" maskUnits="userSpaceOnUse" x="0" y="0" width="20" height="18">
<path d="M0.927246 0.0537109H19.0872V17.3337H0.927246V0.0537109Z" fill="white"/>
</mask>
<g mask="url(#mask0_1003_1831)">
<path d="M18.9086 16.0317L16.5157 14.0394C16.4121 13.9517 16.3523 13.8282 16.3523 13.6925V8.22546C16.3523 6.47608 15.6544 4.84629 14.3861 3.63879C13.6403 2.92963 12.7551 2.42754 11.7978 2.14858C11.8178 2.009 11.8257 1.86963 11.8138 1.72213C11.7459 0.949001 11.1757 0.291501 10.4259 0.124209C9.87547 0.000667319 9.30922 0.128167 8.87443 0.474834C8.44381 0.821501 8.19651 1.33567 8.19651 1.88942C8.19651 1.98108 8.21235 2.06483 8.22443 2.15254C5.5763 2.9415 3.66193 5.43608 3.66193 8.39275V13.6886C3.66193 13.8242 3.60214 13.9517 3.49839 14.0353L1.10547 16.0278C1.00193 16.1155 0.942139 16.243 0.942139 16.3744V16.8288C0.942139 17.0798 1.14547 17.283 1.39672 17.283H18.6176C18.8688 17.283 19.0721 17.0798 19.0721 16.8288V16.3744C19.0682 16.243 19.0084 16.1155 18.9086 16.0317ZM9.09776 1.88942C9.09776 1.61046 9.22151 1.35546 9.43672 1.18025C9.6561 1.00483 9.9313 0.941084 10.2226 1.00483C10.5855 1.08858 10.8726 1.41921 10.9084 1.79775C10.9123 1.84963 10.9044 1.9015 10.9005 1.95317C10.5057 1.89754 10.1067 1.87754 9.6961 1.89338C9.49672 1.9015 9.29714 1.92129 9.10172 1.95317C9.10589 1.92942 9.09776 1.90942 9.09776 1.88942ZM2.10256 16.3784L4.07672 14.7328C4.38776 14.4736 4.56735 14.095 4.56735 13.6886V8.39275C4.56735 5.39213 6.84047 2.93358 9.7438 2.79796C11.2515 2.72629 12.6753 3.26025 13.7601 4.29233C14.8448 5.32838 15.443 6.72317 15.443 8.22546V13.6886C15.443 14.0911 15.6223 14.4736 15.9336 14.7328L17.9076 16.3784H2.10256Z" fill="#8FB9AB"/>
</g>
</g>
<defs>
<clipPath id="clip0_1003_1831">
<rect width="20" height="20" fill="white"/>
</clipPath>
</defs>
</svg>
