<svg width="20" height="20" viewBox="0 0 20 20" fill="none" xmlns="http://www.w3.org/2000/svg">
<g clip-path="url(#clip0_1003_1762)">
<path fill-rule="evenodd" clip-rule="evenodd" d="M5.56214 7.57441C5.4438 7.45607 5.32546 7.33773 5.20712 7.21938C4.14203 6.27264 3.55031 4.97086 3.787 3.55075C4.02368 2.72234 4.37871 2.01228 5.08877 1.42057C6.03552 0.592165 7.45564 0.237135 8.75741 0.592165C9.8225 0.828851 10.5326 1.42057 11.1243 2.36731C12.071 4.02412 11.5976 6.03595 10.1775 7.21938C10.0592 7.33773 9.94084 7.45607 9.8225 7.57441C10.1775 7.69276 10.4142 7.92944 10.6509 8.04779C10.7692 5.68092 13.0178 4.2608 15.2663 5.44424C17.1598 6.50932 17.2781 9.23122 15.503 10.533C15.6213 10.6513 15.858 10.6513 15.9763 10.7697C17.0414 11.4797 17.6332 12.5448 17.7515 13.7283C17.8698 15.1484 17.7515 16.8052 17.7515 18.107C17.7515 18.817 17.9882 19.0537 17.3965 19.5271H17.2781H2.84025H2.72191C2.36688 19.172 2.24854 19.172 2.24854 18.5803V13.7283C2.24854 12.3081 2.24854 11.3614 2.84025 10.178C3.07694 9.70459 3.31362 9.34956 3.66865 8.87619C4.14203 8.40282 4.85209 7.8111 5.56214 7.57441ZM7.45564 1.89394C6.03552 2.01228 5.08877 3.19572 5.20712 4.61583C5.4438 5.91761 6.62723 6.86435 7.92901 6.74601C9.34913 6.50932 10.2959 5.32589 10.1775 4.02412C9.94084 2.604 8.75741 1.65725 7.45564 1.89394ZM13.3728 6.50932C12.5444 6.62767 11.9527 7.45607 12.071 8.40282C12.1894 9.23122 13.1361 9.82293 13.9645 9.70459C14.7929 9.46791 15.3846 8.75784 15.2663 7.8111C15.1479 6.9827 14.3195 6.39098 13.3728 6.50932ZM11.2426 10.888C10.5326 9.23122 8.75741 8.40282 6.98226 8.6395C5.20712 8.99453 3.787 10.533 3.787 12.3081L3.66865 18.107H9.58581V14.2016C9.58581 13.4916 9.70416 12.7815 10.1775 12.0715C10.4142 11.5981 10.7692 11.2431 11.2426 10.888ZM11.0059 18.107H16.3314V14.2016C16.3314 12.6632 15.1479 11.5981 13.6095 11.5981C12.1894 11.5981 11.0059 12.6632 11.0059 14.2016V18.107Z" fill="#8FB9AB"/>
</g>
<defs>
<clipPath id="clip0_1003_1762">
<rect width="20" height="20" fill="white"/>
</clipPath>
</defs>
</svg>
