<svg width="10" height="10" viewBox="0 0 10 10" fill="none" xmlns="http://www.w3.org/2000/svg">
<path fill-rule="evenodd" clip-rule="evenodd" d="M6.19675 6.93504L6.44435 5.19775C6.50789 4.75129 6.88925 4.41941 7.33924 4.41941H8.80102C9.25081 4.41941 9.63216 4.75129 9.69591 5.19775C9.79706 5.90691 9.97445 7.15254 9.97445 7.15254C10.0014 7.34264 9.86956 7.519 9.68018 7.54608C9.4906 7.57316 9.31477 7.44098 9.28768 7.25108L9.00924 5.29598C8.98977 5.19514 8.95758 5.12327 8.93997 5.16785V9.644C8.93997 9.734 8.90435 9.82056 8.8406 9.88441C8.77706 9.94827 8.69081 9.984 8.60081 9.984C8.6005 9.984 8.60029 9.984 8.60008 9.984C8.41268 9.984 8.26091 9.83181 8.26091 9.644V7.54962H7.87935C7.87935 7.54962 7.87935 8.97389 7.87935 9.64348C7.87935 9.73379 7.84341 9.82056 7.77977 9.88421C7.71622 9.94806 7.62977 9.984 7.53966 9.984C7.53945 9.984 7.53925 9.984 7.53925 9.984C7.35164 9.984 7.19966 9.8316 7.19966 9.64348V5.16827C7.16893 5.13941 7.1406 5.22035 7.13112 5.29598L6.85258 7.25108C6.82529 7.44098 6.64966 7.57316 6.46008 7.54608C6.33862 7.52879 6.24102 7.45004 6.19341 7.34598C6.11497 7.36775 6.03466 7.38212 5.95612 7.39077C5.79143 7.40921 5.63747 7.40275 5.5357 7.3941C5.51341 7.4066 5.48789 7.42785 5.4857 7.45337C5.48529 7.46046 5.48643 7.47358 5.48966 7.48066C5.48966 7.48066 5.66445 8.79421 5.69435 9.01889C5.6955 9.02712 5.693 9.03556 5.68747 9.04171C5.68195 9.04796 5.67425 9.0515 5.66581 9.0515C5.61404 9.0515 5.51893 9.0515 5.51893 9.0515V9.78348C5.51893 9.83671 5.49789 9.88775 5.4605 9.92525C5.42289 9.96296 5.37195 9.984 5.31914 9.984C5.31893 9.984 5.31893 9.984 5.31872 9.984C5.20831 9.984 5.11872 9.89441 5.11872 9.78348V9.0515H4.89393C4.89393 9.0515 4.89393 9.38869 4.89393 9.78348C4.89393 9.8365 4.87289 9.88754 4.83529 9.92525C4.79768 9.96296 4.74675 9.984 4.69393 9.984C4.69372 9.984 4.69372 9.984 4.69341 9.984C4.5831 9.984 4.49341 9.89421 4.49341 9.78348V9.0515H4.34675C4.33862 9.0515 4.3306 9.04796 4.32508 9.04171C4.31977 9.03556 4.31737 9.02712 4.31841 9.01889C4.34831 8.79421 4.52289 7.48066 4.52289 7.48066C4.52685 7.45119 4.49143 7.38994 4.46206 7.38598C4.46091 7.38598 4.45966 7.38504 4.45831 7.38369C4.19925 7.42879 3.97529 7.41014 3.80091 7.37223C3.76331 7.43379 3.69747 7.47848 3.60383 7.51212C3.46997 7.56046 3.27154 7.49837 3.20977 7.32629L2.93018 5.22483C2.92352 5.17493 2.87768 5.13962 2.828 5.14629C2.7782 5.15296 2.743 5.19889 2.74966 5.24879C2.74966 5.24879 3.04872 7.49754 3.09768 7.86441C3.09925 7.87702 3.09539 7.88994 3.08706 7.89962C3.07862 7.90921 3.06643 7.91473 3.05362 7.91473C2.96685 7.91473 2.79945 7.91473 2.79945 7.91473V9.644C2.79945 9.734 2.76362 9.82056 2.70008 9.88441C2.63633 9.94827 2.55008 9.984 2.46008 9.984C2.45977 9.984 2.45956 9.984 2.45935 9.984C2.27216 9.984 2.12018 9.83181 2.12018 9.644V7.91473H1.73862C1.73862 7.91473 1.73862 8.97389 1.73862 9.64348C1.73862 9.73379 1.703 9.82056 1.63925 9.88421C1.5755 9.94806 1.48904 9.984 1.39893 9.984C1.39893 9.984 1.39872 9.984 1.39852 9.984C1.21091 9.984 1.05893 9.8316 1.05893 9.64348V7.91473H0.805183C0.792579 7.91473 0.780391 7.90921 0.771954 7.89962C0.763308 7.88994 0.759558 7.87702 0.761329 7.86441C0.810079 7.49754 1.10914 5.24879 1.10914 5.24879C1.11581 5.19889 1.0806 5.15296 1.03081 5.14629C0.981016 5.13962 0.935287 5.17493 0.92862 5.22483L0.649141 7.32629C0.61862 7.46066 0.435495 7.5015 0.265599 7.46264C0.173724 7.44181 -0.00231737 7.32587 0.0250785 7.15254C0.0250785 7.15254 0.202474 5.90691 0.30362 5.19775C0.36737 4.75129 0.748724 4.41941 1.19852 4.41941H2.66029C3.11029 4.41941 3.49164 4.75129 3.55518 5.19775L3.81185 6.99868C3.97091 7.04233 4.20737 7.07275 4.49122 7.00421C4.50029 7.00202 4.51737 6.99816 4.53195 6.99598C4.54518 6.99337 4.55966 6.99181 4.5755 6.99181H5.43706C5.45362 6.99181 5.46893 6.994 5.4831 6.99775C5.51497 7.00244 5.7032 7.02858 5.91247 7.00535C6.00716 6.99483 6.10758 6.97514 6.19675 6.93504ZM5.4857 6.40754C5.48591 6.40462 5.48768 6.40223 5.4906 6.4015C5.4932 6.40066 5.49612 6.40202 5.49768 6.40441C5.53393 6.46546 5.56675 6.54056 5.58789 6.63066C5.63081 6.81118 5.81716 6.88223 5.89904 6.86889C5.90227 6.86691 5.90654 6.86754 5.90914 6.87046C5.91164 6.87337 5.91185 6.87754 5.90966 6.88066C5.868 6.92587 5.7532 7.01525 5.54122 6.92629C5.43997 6.884 5.39039 6.80504 5.35477 6.72066C5.35258 6.71566 5.35362 6.70962 5.35737 6.70566C5.43112 6.62671 5.47862 6.52243 5.4857 6.40754ZM5.00633 5.96723C5.23195 5.96723 5.41518 6.15087 5.41518 6.37712C5.41518 6.60316 5.23195 6.78681 5.00633 6.78681C4.7806 6.78681 4.59747 6.60316 4.59747 6.37712C4.59747 6.15087 4.7806 5.96723 5.00633 5.96723ZM1.92945 2.68066C2.31227 2.68066 2.6231 2.99233 2.6231 3.37629C2.6231 3.75993 2.31227 4.07181 1.92945 4.07181C1.54654 4.07181 1.2357 3.75993 1.2357 3.37629C1.2357 2.99233 1.54654 2.68066 1.92945 2.68066ZM8.06997 2.68066C8.453 2.68066 8.76383 2.99233 8.76383 3.37629C8.76383 3.75993 8.453 4.07181 8.06997 4.07181C7.68727 4.07181 7.37622 3.75993 7.37622 3.37629C7.37622 2.99233 7.68727 2.68066 8.06997 2.68066Z" fill="#ADCED8"/>
</svg>
