<svg width="10" height="10" viewBox="0 0 10 10" fill="none" xmlns="http://www.w3.org/2000/svg">
<path d="M9.70703 5.33245L6.42578 8.6137C6.13281 8.90667 5.625 8.70159 5.625 8.28167V6.40667H2.96875C2.70898 6.40667 2.5 6.19768 2.5 5.93792V4.06292C2.5 3.80315 2.70898 3.59417 2.96875 3.59417H5.625V1.71917C5.625 1.3012 6.13086 1.09417 6.42578 1.38713L9.70703 4.66838C9.88867 4.85198 9.88867 5.14885 9.70703 5.33245ZM3.75 8.51604V7.73479C3.75 7.60588 3.64453 7.50042 3.51562 7.50042H1.875C1.5293 7.50042 1.25 7.22112 1.25 6.87542V3.12542C1.25 2.77971 1.5293 2.50042 1.875 2.50042H3.51562C3.64453 2.50042 3.75 2.39495 3.75 2.26604V1.48479C3.75 1.35588 3.64453 1.25042 3.51562 1.25042H1.875C0.839844 1.25042 0 2.09026 0 3.12542V6.87542C0 7.91057 0.839844 8.75042 1.875 8.75042H3.51562C3.64453 8.75042 3.75 8.64495 3.75 8.51604Z" fill="white"/>
</svg>
