<svg width="10" height="10" viewBox="0 0 10 10" fill="none" xmlns="http://www.w3.org/2000/svg">
<g clip-path="url(#clip0_1003_2076)">
<path d="M6.86328 6.26123L5 8.12451L3.13672 6.26123C1.74023 6.32178 0.625 7.46436 0.625 8.87451V9.06201C0.625 9.57959 1.04492 9.99951 1.5625 9.99951H8.4375C8.95508 9.99951 9.375 9.57959 9.375 9.06201V8.87451C9.375 7.46436 8.25977 6.32178 6.86328 6.26123ZM0.890625 1.55811L1.01562 1.5874V2.72803C0.878906 2.81006 0.78125 2.95264 0.78125 3.12451C0.78125 3.28857 0.871094 3.42529 0.998047 3.50928L0.693359 4.72607C0.660156 4.86084 0.734375 4.99951 0.841797 4.99951H1.6582C1.76562 4.99951 1.83984 4.86084 1.80664 4.72607L1.50195 3.50928C1.62891 3.42529 1.71875 3.28857 1.71875 3.12451C1.71875 2.95264 1.62109 2.81006 1.48438 2.72803V1.70068L2.77344 2.01123C2.60547 2.34717 2.5 2.72217 2.5 3.12451C2.5 4.50537 3.61914 5.62451 5 5.62451C6.38086 5.62451 7.5 4.50537 7.5 3.12451C7.5 2.72217 7.39648 2.34717 7.22656 2.01123L9.10742 1.55811C9.46289 1.47217 9.46289 1.02881 9.10742 0.942871L5.38867 0.0444336C5.13477 -0.0161133 4.86719 -0.0161133 4.61328 0.0444336L0.890625 0.940918C0.537109 1.02686 0.537109 1.47217 0.890625 1.55811Z" fill="#ADCED8"/>
</g>
<defs>
<clipPath id="clip0_1003_2076">
<rect width="10" height="10" fill="white"/>
</clipPath>
</defs>
</svg>
