<svg width="10" height="10" viewBox="0 0 10 10" fill="none" xmlns="http://www.w3.org/2000/svg">
<g clip-path="url(#clip0_1003_2081)">
<path d="M2.59708 6.09536C2.63958 6.14641 2.70292 6.17578 2.76885 6.17578C2.77354 6.17578 2.77823 6.17568 2.78292 6.17536C2.85385 6.17089 2.91885 6.13255 2.95729 6.07276L3.55896 5.13453C3.61563 5.0463 3.60219 4.93339 3.53354 4.86036L4.31687 3.6913L4.22385 3.62891L3.43885 4.80047C3.34458 4.77016 3.23813 4.80526 3.18219 4.89266L2.7451 5.57401L2.15688 4.86995C2.11812 4.82339 2.06438 4.79682 2.00854 4.79089C1.98708 4.7838 1.96427 4.77974 1.94042 4.77974H0.859062C0.856875 4.77974 0.854688 4.78005 0.8525 4.78016C0.8025 4.78036 0.716667 4.79068 0.618958 4.83995C0.468437 4.91474 0.306042 5.07807 0.1925 5.36755C0.0776042 5.65828 0.000416667 6.07849 0 6.71307C0.000104167 6.87714 0.00531251 7.05547 0.0167708 7.24964C0.02375 7.3687 0.122396 7.46057 0.240104 7.46057C0.244479 7.46057 0.248958 7.46047 0.253438 7.46016C0.376771 7.45286 0.471042 7.34693 0.46375 7.22328C0.452813 7.03714 0.447813 6.86745 0.447917 6.71307C0.446875 6.03464 0.545729 5.6537 0.642812 5.45495V9.65589C0.642812 9.84714 0.797813 10.0021 0.988854 10.0021C1.1799 10.0021 1.3349 9.84714 1.3349 9.65589V7.12797H1.46458V9.65589C1.46458 9.84714 1.61958 10.0021 1.81063 10.0021C2.00177 10.0021 2.15667 9.84714 2.15667 9.65589V5.56828L2.59708 6.09536Z" fill="#ADCED8"/>
<path d="M2.0295 3.98948C2.0295 4.0101 2.02846 4.03073 2.02648 4.05125C2.02439 4.07177 2.02137 4.09219 2.01742 4.1124C2.01335 4.13271 2.00835 4.15271 2.00242 4.1724C1.99637 4.19219 1.9895 4.21156 1.98158 4.23063C1.97367 4.24969 1.96481 4.26833 1.95512 4.28656C1.94544 4.30469 1.93481 4.3224 1.92335 4.33958C1.91189 4.35677 1.8996 4.37333 1.88658 4.38927C1.87346 4.40521 1.8596 4.42042 1.84502 4.4351C1.83044 4.44969 1.81523 4.46354 1.79929 4.47656C1.78335 4.48969 1.76679 4.50198 1.7496 4.51344C1.73252 4.5249 1.71481 4.53552 1.69658 4.54521C1.67846 4.5549 1.65981 4.56375 1.64075 4.57167C1.62169 4.57958 1.60231 4.58646 1.58252 4.5925C1.56283 4.59844 1.54283 4.60344 1.52262 4.6075C1.50242 4.61156 1.482 4.61458 1.46148 4.61656C1.44096 4.61865 1.42044 4.61958 1.39981 4.61958C1.37919 4.61958 1.35856 4.61865 1.33804 4.61656C1.31752 4.61458 1.2971 4.61156 1.27689 4.6075C1.25669 4.60344 1.23669 4.59844 1.217 4.5925C1.19721 4.58646 1.17783 4.57958 1.15877 4.57167C1.13971 4.56375 1.12106 4.5549 1.10294 4.54521C1.08471 4.53552 1.0671 4.5249 1.04992 4.51344C1.03273 4.50198 1.01627 4.48969 1.00023 4.47656C0.98429 4.46354 0.969082 4.44969 0.954499 4.4351C0.939915 4.42042 0.926061 4.40521 0.912936 4.38927C0.899915 4.37333 0.887624 4.35677 0.876165 4.33958C0.864707 4.3224 0.854082 4.30469 0.844395 4.28656C0.834707 4.26833 0.825853 4.24969 0.817936 4.23063C0.810124 4.21156 0.803145 4.19219 0.797207 4.1724C0.791165 4.15271 0.786165 4.13271 0.782103 4.1124C0.778145 4.09219 0.775124 4.07177 0.77304 4.05125C0.771061 4.03073 0.77002 4.0101 0.77002 3.98948C0.77002 3.96885 0.771061 3.94833 0.77304 3.92771C0.775124 3.90719 0.778145 3.88688 0.782103 3.86656C0.786165 3.84635 0.791165 3.82635 0.797207 3.80656C0.803145 3.78688 0.810124 3.7675 0.817936 3.74833C0.825853 3.72927 0.834707 3.71073 0.844395 3.6925C0.854082 3.67427 0.864707 3.65656 0.876165 3.63948C0.887624 3.62229 0.899915 3.60573 0.912936 3.58979C0.926061 3.57385 0.939915 3.55854 0.954499 3.54396C0.969082 3.52938 0.98429 3.51552 1.00023 3.5024C1.01627 3.48938 1.03273 3.47708 1.04992 3.46563C1.0671 3.45417 1.08471 3.44354 1.10294 3.43385C1.12106 3.42406 1.13971 3.41531 1.15877 3.4074C1.17783 3.39948 1.19721 3.3925 1.217 3.38656C1.23669 3.38052 1.25669 3.37552 1.27689 3.37156C1.2971 3.3675 1.31752 3.36448 1.33804 3.3625C1.35856 3.36042 1.37919 3.35938 1.39981 3.35938C1.42044 3.35938 1.44096 3.36042 1.46148 3.3625C1.482 3.36448 1.50242 3.3675 1.52262 3.37156C1.54283 3.37552 1.56283 3.38052 1.58252 3.38656C1.60231 3.3925 1.62169 3.39948 1.64075 3.4074C1.65981 3.41531 1.67846 3.42406 1.69658 3.43385C1.71481 3.44354 1.73252 3.45417 1.7496 3.46563C1.76679 3.47708 1.78335 3.48938 1.79929 3.5024C1.81523 3.51552 1.83044 3.52938 1.84502 3.54396C1.8596 3.55854 1.87346 3.57385 1.88658 3.58979C1.8996 3.60573 1.91189 3.62229 1.92335 3.63948C1.93481 3.65656 1.94544 3.67427 1.95512 3.6925C1.96481 3.71073 1.97367 3.72927 1.98158 3.74833C1.9895 3.7675 1.99637 3.78688 2.00242 3.80656C2.00835 3.82635 2.01335 3.84635 2.01742 3.86656C2.02137 3.88688 2.02439 3.90719 2.02648 3.92771C2.02846 3.94833 2.0295 3.96885 2.0295 3.98948Z" fill="#ADCED8"/>
<path d="M9.00032 1.62793H1.61157V3.04137H1.75157V1.76783H8.86032V5.66053H3.67157V5.80064H9.00032V1.62793Z" fill="#ADCED8"/>
<path d="M4.51314 7.63206C4.51314 7.65268 4.5121 7.67331 4.51002 7.69383C4.50804 7.71435 4.50502 7.73477 4.50095 7.75497C4.497 7.77518 4.492 7.79518 4.48595 7.81497C4.48002 7.83466 4.47304 7.85414 4.46512 7.8732C4.45731 7.89227 4.44845 7.91091 4.43877 7.92904C4.42897 7.94727 4.41845 7.96497 4.407 7.98216C4.39554 7.99924 4.38325 8.01581 4.37012 8.03174C4.3571 8.04779 4.34325 8.06299 4.32866 8.07758C4.31408 8.09216 4.29877 8.10602 4.28283 8.11914C4.26689 8.13227 4.25033 8.14445 4.23325 8.15591C4.21606 8.16747 4.19845 8.17799 4.18022 8.18779C4.162 8.19747 4.14345 8.20633 4.12439 8.21414C4.10533 8.22206 4.08595 8.22904 4.06616 8.23497C4.04647 8.24102 4.02647 8.24602 4.00627 8.25008C3.98595 8.25404 3.96564 8.25706 3.94512 8.25914C3.9246 8.26112 3.90397 8.26216 3.88335 8.26216C3.86272 8.26216 3.8422 8.26112 3.82168 8.25914C3.80116 8.25706 3.78075 8.25404 3.76054 8.25008C3.74033 8.24602 3.72033 8.24102 3.70054 8.23497C3.68085 8.22904 3.66147 8.22206 3.64241 8.21414C3.62335 8.20633 3.6047 8.19747 3.58647 8.18779C3.56835 8.17799 3.55064 8.16747 3.53356 8.15591C3.51637 8.14445 3.49981 8.13227 3.48387 8.11914C3.46793 8.10602 3.45272 8.09216 3.43814 8.07758C3.42356 8.06299 3.4097 8.04779 3.39658 8.03174C3.38345 8.01581 3.37127 7.99924 3.35981 7.98216C3.34835 7.96497 3.33772 7.94727 3.32804 7.92904C3.31825 7.91091 3.3095 7.89227 3.30158 7.8732C3.29366 7.85414 3.28679 7.83466 3.28075 7.81497C3.27481 7.79518 3.26981 7.77518 3.26575 7.75497C3.26168 7.73477 3.25866 7.71435 3.25668 7.69383C3.2547 7.67331 3.25366 7.65268 3.25366 7.63206C3.25366 7.61143 3.2547 7.59081 3.25668 7.57029C3.25866 7.54977 3.26168 7.52935 3.26575 7.50914C3.26981 7.48893 3.27481 7.46893 3.28075 7.44914C3.28679 7.42935 3.29366 7.40997 3.30158 7.39091C3.3095 7.37185 3.31825 7.3532 3.32804 7.33508C3.33772 7.31685 3.34835 7.29914 3.35981 7.28195C3.37127 7.26487 3.38345 7.24831 3.39658 7.23237C3.4097 7.21633 3.42356 7.20112 3.43814 7.18654C3.45272 7.17195 3.46793 7.1581 3.48387 7.14497C3.49981 7.13185 3.51637 7.11966 3.53356 7.1081C3.55064 7.09664 3.56835 7.08612 3.58647 7.07633C3.6047 7.06664 3.62335 7.05779 3.64241 7.04987C3.66147 7.04206 3.68085 7.03508 3.70054 7.02904C3.72033 7.0231 3.74033 7.0181 3.76054 7.01404C3.78075 7.01008 3.80116 7.00706 3.82168 7.00497C3.8422 7.00299 3.86272 7.00195 3.88335 7.00195C3.90397 7.00195 3.9246 7.00299 3.94512 7.00497C3.96564 7.00706 3.98595 7.01008 4.00627 7.01404C4.02647 7.0181 4.04647 7.0231 4.06616 7.02904C4.08595 7.03508 4.10533 7.04206 4.12439 7.04987C4.14345 7.05779 4.162 7.06664 4.18022 7.07633C4.19845 7.08612 4.21606 7.09664 4.23325 7.1081C4.25033 7.11966 4.26689 7.13185 4.28283 7.14497C4.29877 7.1581 4.31408 7.17195 4.32866 7.18654C4.34325 7.20112 4.3571 7.21633 4.37012 7.23237C4.38325 7.24831 4.39554 7.26487 4.407 7.28195C4.41845 7.29914 4.42897 7.31685 4.43877 7.33508C4.44845 7.3532 4.45731 7.37185 4.46512 7.39091C4.47304 7.40997 4.48002 7.42935 4.48595 7.44914C4.492 7.46893 4.497 7.48893 4.50095 7.50914C4.50502 7.52935 4.50804 7.54977 4.51002 7.57029C4.5121 7.59081 4.51314 7.61143 4.51314 7.63206Z" fill="#ADCED8"/>
<path d="M6.87813 7.63206C6.87813 7.65268 6.87709 7.67331 6.87511 7.69383C6.87313 7.71435 6.87011 7.73477 6.86605 7.75497C6.86199 7.77518 6.85699 7.79518 6.85105 7.81497C6.84501 7.83466 6.83813 7.85414 6.83021 7.8732C6.8223 7.89227 6.81355 7.91091 6.80376 7.92904C6.79407 7.94727 6.78344 7.96497 6.77199 7.98216C6.76053 7.99924 6.74834 8.01581 6.73521 8.03174C6.72209 8.04779 6.70834 8.06299 6.69376 8.07758C6.67917 8.09216 6.66386 8.10602 6.64792 8.11914C6.63199 8.13227 6.61542 8.14445 6.59824 8.15591C6.58115 8.16747 6.56344 8.17799 6.54532 8.18779C6.52709 8.19747 6.50844 8.20633 6.48938 8.21414C6.47032 8.22206 6.45094 8.22904 6.43126 8.23497C6.41146 8.24102 6.39146 8.24602 6.37126 8.25008C6.35105 8.25404 6.33063 8.25706 6.31011 8.25914C6.28959 8.26112 6.26907 8.26216 6.24844 8.26216C6.22782 8.26216 6.20719 8.26112 6.18667 8.25914C6.16615 8.25706 6.14584 8.25404 6.12553 8.25008C6.10532 8.24602 6.08532 8.24102 6.06563 8.23497C6.04584 8.22904 6.02646 8.22206 6.0074 8.21414C5.98834 8.20633 5.9698 8.19747 5.95157 8.18779C5.93334 8.17799 5.91574 8.16747 5.89855 8.15591C5.88146 8.14445 5.8649 8.13227 5.84896 8.11914C5.83303 8.10602 5.81771 8.09216 5.80313 8.07758C5.78855 8.06299 5.77469 8.04779 5.76167 8.03174C5.74855 8.01581 5.73626 7.99924 5.7248 7.98216C5.71334 7.96497 5.70282 7.94727 5.69303 7.92904C5.68334 7.91091 5.67449 7.89227 5.66667 7.8732C5.65876 7.85414 5.65178 7.83466 5.64584 7.81497C5.6398 7.79518 5.6348 7.77518 5.63084 7.75497C5.62678 7.73477 5.62376 7.71435 5.62178 7.69383C5.61969 7.67331 5.61865 7.65268 5.61865 7.63206C5.61865 7.61143 5.61969 7.59081 5.62178 7.57029C5.62376 7.54977 5.62678 7.52935 5.63084 7.50914C5.6348 7.48893 5.6398 7.46893 5.64584 7.44914C5.65178 7.42935 5.65876 7.40997 5.66667 7.39091C5.67449 7.37185 5.68334 7.3532 5.69303 7.33508C5.70282 7.31685 5.71334 7.29914 5.7248 7.28195C5.73626 7.26487 5.74855 7.24831 5.76167 7.23237C5.77469 7.21633 5.78855 7.20112 5.80313 7.18654C5.81771 7.17195 5.83303 7.1581 5.84896 7.14497C5.8649 7.13185 5.88146 7.11966 5.89855 7.1081C5.91574 7.09664 5.93334 7.08612 5.95157 7.07633C5.9698 7.06664 5.98834 7.05779 6.0074 7.04987C6.02646 7.04206 6.04584 7.03508 6.06563 7.02904C6.08532 7.0231 6.10532 7.0181 6.12553 7.01404C6.14584 7.01008 6.16615 7.00706 6.18667 7.00497C6.20719 7.00299 6.22782 7.00195 6.24844 7.00195C6.26907 7.00195 6.28959 7.00299 6.31011 7.00497C6.33063 7.00706 6.35105 7.01008 6.37126 7.01404C6.39146 7.0181 6.41146 7.0231 6.43126 7.02904C6.45094 7.03508 6.47032 7.04206 6.48938 7.04987C6.50844 7.05779 6.52709 7.06664 6.54532 7.07633C6.56344 7.08612 6.58115 7.09664 6.59824 7.1081C6.61542 7.11966 6.63199 7.13185 6.64792 7.14497C6.66386 7.1581 6.67917 7.17195 6.69376 7.18654C6.70834 7.20112 6.72209 7.21633 6.73521 7.23237C6.74834 7.24831 6.76053 7.26487 6.77199 7.28195C6.78344 7.29914 6.79407 7.31685 6.80376 7.33508C6.81355 7.3532 6.8223 7.37185 6.83021 7.39091C6.83813 7.40997 6.84501 7.42935 6.85105 7.44914C6.85699 7.46893 6.86199 7.48893 6.86605 7.50914C6.87011 7.52935 6.87313 7.54977 6.87511 7.57029C6.87709 7.59081 6.87813 7.61143 6.87813 7.63206Z" fill="#ADCED8"/>
<path d="M3.12661 9.09729V9.94656H4.64047V9.09865C4.65714 9.1326 4.6738 9.17167 4.69036 9.21729C4.74807 9.37729 4.79891 9.61271 4.82203 9.94656H5.30964C5.33943 9.51708 5.41599 9.25198 5.49151 9.09729V9.94656H7.00547V9.09854C7.02203 9.1326 7.0388 9.17167 7.05526 9.21729C7.11297 9.37729 7.16391 9.61271 7.18703 9.94656H7.67453C7.70432 9.51708 7.78099 9.25198 7.85651 9.09729V9.94656H9.37036V9.09854C9.38703 9.1326 9.4037 9.17167 9.42026 9.21729C9.47797 9.37729 9.5288 9.61271 9.55193 9.94656H10.0006C9.96318 9.35281 9.84484 8.99323 9.69297 8.76094C9.60099 8.62135 9.49349 8.53177 9.39411 8.48219C9.29849 8.43396 9.21443 8.42313 9.16391 8.4224C9.16068 8.42229 9.15745 8.42188 9.15411 8.42188H8.07276C8.06901 8.42188 8.06536 8.42229 8.06172 8.4225C8.01109 8.42323 7.92755 8.43427 7.83266 8.48219C7.69255 8.55167 7.54234 8.69802 7.43068 8.95125C7.3988 8.87958 7.36432 8.81656 7.32797 8.76094C7.23609 8.62135 7.12849 8.53177 7.02911 8.48219C6.93349 8.43385 6.84943 8.42302 6.79891 8.4224C6.79568 8.42229 6.79245 8.42188 6.78911 8.42188H5.70776C5.70401 8.42188 5.70036 8.42229 5.69672 8.4224C5.64609 8.42313 5.56266 8.43427 5.46766 8.48219C5.32755 8.55167 5.17734 8.69802 5.06568 8.95125C5.0338 8.87958 4.99943 8.81656 4.96297 8.76094C4.87109 8.62135 4.76349 8.53177 4.66411 8.48219C4.56849 8.43385 4.48443 8.42302 4.43391 8.4224C4.43068 8.42219 4.42745 8.42188 4.42411 8.42188H3.34276C3.33901 8.42188 3.33536 8.42219 3.33172 8.4224C3.28109 8.42313 3.19766 8.43427 3.10266 8.48219C2.95203 8.55677 2.78984 8.72021 2.6762 9.00979C2.58797 9.23281 2.52224 9.5326 2.49609 9.94656H2.94453C2.97443 9.51708 3.05109 9.25208 3.12661 9.09729Z" fill="#ADCED8"/>
<path d="M9.24312 7.63206C9.24312 7.65268 9.24208 7.67331 9.2401 7.69383C9.23802 7.71435 9.235 7.73477 9.23104 7.75497C9.22698 7.77518 9.22198 7.79518 9.21593 7.81497C9.21 7.83466 9.20302 7.85414 9.19521 7.8732C9.18729 7.89227 9.17843 7.91091 9.16875 7.92904C9.15906 7.94727 9.14843 7.96497 9.13698 7.98216C9.12552 7.99924 9.11323 8.01581 9.10021 8.03174C9.08708 8.04779 9.07323 8.06299 9.05864 8.07758C9.04406 8.09216 9.02885 8.10602 9.01291 8.11914C8.99687 8.13227 8.98041 8.14445 8.96323 8.15591C8.94604 8.16747 8.92843 8.17799 8.91021 8.18779C8.89208 8.19747 8.87343 8.20633 8.85437 8.21414C8.83531 8.22206 8.81593 8.22904 8.79614 8.23497C8.77646 8.24102 8.75646 8.24602 8.73625 8.25008C8.71604 8.25404 8.69562 8.25706 8.6751 8.25914C8.65458 8.26112 8.63396 8.26216 8.61333 8.26216C8.59271 8.26216 8.57218 8.26112 8.55166 8.25914C8.53114 8.25706 8.51073 8.25404 8.49052 8.25008C8.47031 8.24602 8.45031 8.24102 8.43062 8.23497C8.41083 8.22904 8.39146 8.22206 8.37239 8.21414C8.35333 8.20633 8.33468 8.19747 8.31656 8.18779C8.29833 8.17799 8.28062 8.16747 8.26354 8.15591C8.24635 8.14445 8.22979 8.13227 8.21385 8.11914C8.19791 8.10602 8.18271 8.09216 8.16812 8.07758C8.15354 8.06299 8.13968 8.04779 8.12656 8.03174C8.11354 8.01581 8.10125 7.99924 8.08979 7.98216C8.07833 7.96497 8.06771 7.94727 8.05802 7.92904C8.04833 7.91091 8.03948 7.89227 8.03156 7.8732C8.02364 7.85414 8.01677 7.83466 8.01073 7.81497C8.00479 7.79518 7.99979 7.77518 7.99573 7.75497C7.99177 7.73477 7.98875 7.71435 7.98666 7.69383C7.98468 7.67331 7.98364 7.65268 7.98364 7.63206C7.98364 7.61143 7.98468 7.59081 7.98666 7.57029C7.98875 7.54977 7.99177 7.52935 7.99573 7.50914C7.99979 7.48893 8.00479 7.46893 8.01073 7.44914C8.01677 7.42935 8.02364 7.40997 8.03156 7.39091C8.03948 7.37185 8.04833 7.3532 8.05802 7.33508C8.06771 7.31685 8.07833 7.29914 8.08979 7.28195C8.10125 7.26487 8.11354 7.24831 8.12656 7.23237C8.13968 7.21633 8.15354 7.20112 8.16812 7.18654C8.18271 7.17195 8.19791 7.1581 8.21385 7.14497C8.22979 7.13185 8.24635 7.11966 8.26354 7.1081C8.28062 7.09664 8.29833 7.08612 8.31656 7.07633C8.33468 7.06664 8.35333 7.05779 8.37239 7.04987C8.39146 7.04206 8.41083 7.03508 8.43062 7.02904C8.45031 7.0231 8.47031 7.0181 8.49052 7.01404C8.51073 7.01008 8.53114 7.00706 8.55166 7.00497C8.57218 7.00299 8.59271 7.00195 8.61333 7.00195C8.63396 7.00195 8.65458 7.00299 8.6751 7.00497C8.69562 7.00706 8.71604 7.01008 8.73625 7.01404C8.75646 7.0181 8.77646 7.0231 8.79614 7.02904C8.81593 7.03508 8.83531 7.04206 8.85437 7.04987C8.87343 7.05779 8.89208 7.06664 8.91021 7.07633C8.92843 7.08612 8.94604 7.09664 8.96323 7.1081C8.98041 7.11966 8.99687 7.13185 9.01291 7.14497C9.02885 7.1581 9.04406 7.17195 9.05864 7.18654C9.07323 7.20112 9.08708 7.21633 9.10021 7.23237C9.11323 7.24831 9.12552 7.26487 9.13698 7.28195C9.14843 7.29914 9.15906 7.31685 9.16875 7.33508C9.17843 7.3532 9.18729 7.37185 9.19521 7.39091C9.20302 7.40997 9.21 7.42935 9.21593 7.44914C9.22198 7.46893 9.22698 7.48893 9.23104 7.50914C9.235 7.52935 9.23802 7.54977 9.2401 7.57029C9.24208 7.59081 9.24312 7.61143 9.24312 7.63206Z" fill="#ADCED8"/>
</g>
<defs>
<clipPath id="clip0_1003_2081">
<rect width="10" height="10" fill="white"/>
</clipPath>
</defs>
</svg>
