<svg width="20" height="20" viewBox="0 0 20 20" fill="none" xmlns="http://www.w3.org/2000/svg">
<g clip-path="url(#clip0_1003_1943)">
<path d="M10.008 4.9502C7.90471 4.9502 6.19971 6.73957 6.19971 8.94686C6.19971 11.1544 7.90471 12.9437 10.008 12.9437C12.1114 12.9437 13.8162 11.1544 13.8162 8.94686C13.8162 6.73957 12.1114 4.9502 10.008 4.9502Z" fill="#8FB9AB"/>
<mask id="mask0_1003_1943" style="mask-type:luminance" maskUnits="userSpaceOnUse" x="0" y="0" width="20" height="20">
<path d="M0.487305 0H19.5273V20H0.487305V0Z" fill="white"/>
</mask>
<g mask="url(#mask0_1003_1943)">
<path d="M16.3325 16.8978C15.4892 14.8407 13.7186 13.5541 10.0021 13.5541C6.29043 13.5541 4.5198 14.8374 3.67522 16.8899C1.95585 15.1486 0.886471 12.7053 0.886471 9.9999C0.886471 4.71281 4.97022 0.426771 10.0079 0.426771C15.0456 0.426771 19.1294 4.71281 19.1294 9.9999C19.1294 12.7097 18.0565 15.1564 16.3325 16.8978ZM10.0079 0.0078125C4.7498 0.0078125 0.487305 4.48156 0.487305 9.9999C0.487305 12.8861 1.65335 15.4868 3.51814 17.3109C5.21855 18.9743 7.4998 19.992 10.0079 19.992C12.5115 19.992 14.7894 18.9776 16.489 17.3191C18.3586 15.4947 19.5286 12.8907 19.5286 9.9999C19.5286 4.48156 15.2658 0.0078125 10.0079 0.0078125Z" fill="#8FB9AB"/>
</g>
</g>
<defs>
<clipPath id="clip0_1003_1943">
<rect width="20" height="20" fill="white"/>
</clipPath>
</defs>
</svg>
