<svg width="20" height="20" viewBox="0 0 20 20" fill="none" xmlns="http://www.w3.org/2000/svg">
<g clip-path="url(#clip0_1003_1841)">
<path fill-rule="evenodd" clip-rule="evenodd" d="M10.0593 3.19614H10.1777C10.296 3.0778 10.4143 3.0778 10.5327 2.95945C12.7812 1.77602 15.1481 2.84111 16.3315 4.85294C17.5149 6.86478 17.1599 9.58667 15.6214 11.2435C15.5031 11.3618 15.5031 11.4802 15.3848 11.5985C15.7398 11.7168 16.2132 11.7168 16.5682 11.9535C18.225 12.7819 19.2901 14.5571 19.4084 16.3322C19.5268 17.0423 19.5268 17.989 19.0534 18.5808C18.58 19.2908 17.87 19.0541 17.0416 19.0541H7.8108C7.10074 19.0541 6.27234 19.1725 5.79896 18.5808C5.32559 17.989 5.44393 17.0423 5.44393 16.3322C5.56228 15.1488 6.15399 13.847 6.98239 13.0186C7.21908 12.7819 7.33742 12.6636 7.57411 12.4269C8.04748 12.0719 8.6392 11.8352 9.23092 11.5985C9.34926 11.5985 9.4676 11.5985 9.58595 11.4802C9.4676 11.4802 9.4676 11.4802 9.4676 11.3618C9.23092 11.2435 9.11257 11.0068 8.99423 10.7701C8.75754 10.5334 8.6392 10.2967 8.52086 10.06C8.28417 10.06 8.16583 9.9417 7.92914 9.82336H7.8108C7.69245 9.82336 7.57411 9.82336 7.45577 9.9417C6.50902 10.2967 5.68062 10.4151 4.61553 10.1784C2.36701 9.70502 0.710205 7.69318 0.710205 5.32632C0.710205 1.53933 4.97056 -0.82753 8.28417 1.1843C9.23092 1.77602 9.58595 2.36774 10.0593 3.19614ZM10.1777 10.1784C10.651 10.6518 11.3611 11.1251 12.0712 11.2435C13.0179 11.3618 13.9646 11.0068 14.6747 10.2967C16.8049 7.92987 15.2664 3.43283 12.1895 3.78785C11.5978 3.9062 11.1244 4.14288 10.651 4.49791L10.5327 4.61626C10.5327 4.7346 10.651 5.32632 10.651 5.563C10.5327 7.33815 9.70429 6.86478 10.8877 8.16655C11.2427 8.52158 12.0712 9.1133 11.4794 9.70502C11.3611 9.9417 10.651 10.06 10.1777 10.1784ZM9.58595 8.87661C9.34926 8.52158 9.11257 8.2849 8.99423 8.04821C8.40251 7.10146 8.87589 7.21981 9.11257 6.27306C9.34926 5.32632 9.11257 4.02454 8.52086 3.19614C7.10074 1.53933 4.61553 1.30265 3.07707 2.95945C1.53861 4.49791 1.89364 7.10146 3.55044 8.2849C4.49719 8.87661 5.68062 8.99496 6.74571 8.75827C6.98239 8.63993 7.21908 8.52158 7.45577 8.40324C7.92914 8.16655 8.16583 8.40324 8.52086 8.63993C8.75754 8.75827 9.23092 8.87661 9.58595 8.87661ZM10.5327 12.6636C9.4676 12.9003 8.52086 13.3737 7.8108 14.2021C6.98239 15.1488 6.86405 15.9772 6.86405 17.279C6.86405 17.279 6.86405 17.634 6.86405 17.7524C6.98239 17.7524 7.8108 17.7524 8.04748 17.7524H17.87C18.1067 17.7524 18.1067 17.7524 18.1067 17.5157C18.1067 16.2139 17.9883 15.2671 17.1599 14.3204C16.5682 13.492 15.7398 12.9003 14.6747 12.7819C13.9646 12.6636 11.2427 12.6636 10.5327 12.6636Z" fill="#8FB9AB"/>
<path fill-rule="evenodd" clip-rule="evenodd" d="M5.32557 2.72266C4.8522 2.72266 4.61551 2.72266 4.26048 2.95934C4.14214 3.07769 3.90545 3.43272 3.78711 3.78774C3.78711 4.26112 4.14214 4.4978 4.49717 4.26112C4.73386 4.02443 4.49717 3.55106 4.97054 3.55106C5.20723 3.43272 6.15397 3.43272 6.27232 3.55106C6.509 3.6694 6.74569 3.90609 6.62735 4.37946C6.509 4.73449 6.15397 4.73449 5.6806 4.73449C5.20723 4.73449 5.20723 4.97118 5.20723 5.44455C5.20723 6.03627 5.08888 6.74633 5.6806 6.74633C6.15397 6.74633 6.03563 6.15461 6.03563 5.56289C8.04746 5.44455 7.92912 2.72266 6.03563 2.72266H5.32557Z" fill="#8FB9AB"/>
<path fill-rule="evenodd" clip-rule="evenodd" d="M6.03556 8.04745C6.27225 7.57408 5.44385 7.33739 5.3255 7.81076C5.08882 8.28414 5.91722 8.52082 6.03556 8.04745Z" fill="#8FB9AB"/>
</g>
<defs>
<clipPath id="clip0_1003_1841">
<rect width="20" height="20" fill="white"/>
</clipPath>
</defs>
</svg>
