<svg width="9" height="8" viewBox="0 0 9 8" fill="none" xmlns="http://www.w3.org/2000/svg">
<g id="book" clip-path="url(#clip0_1427_137)">
<path id="Vector" d="M8.4375 5.625V0.375C8.4375 0.167187 8.24941 0 8.01562 0H2.25C1.31836 0 0.5625 0.671875 0.5625 1.5V6.5C0.5625 7.32812 1.31836 8 2.25 8H8.01562C8.24941 8 8.4375 7.83281 8.4375 7.625V7.375C8.4375 7.25781 8.37598 7.15156 8.28105 7.08281C8.20723 6.84219 8.20723 6.15625 8.28105 5.91563C8.37598 5.84844 8.4375 5.74219 8.4375 5.625ZM2.8125 2.09375C2.8125 2.04219 2.85996 2 2.91797 2H6.64453C6.70254 2 6.75 2.04219 6.75 2.09375V2.40625C6.75 2.45781 6.70254 2.5 6.64453 2.5H2.91797C2.85996 2.5 2.8125 2.45781 2.8125 2.40625V2.09375ZM2.8125 3.09375C2.8125 3.04219 2.85996 3 2.91797 3H6.64453C6.70254 3 6.75 3.04219 6.75 3.09375V3.40625C6.75 3.45781 6.70254 3.5 6.64453 3.5H2.91797C2.85996 3.5 2.8125 3.45781 2.8125 3.40625V3.09375ZM7.2668 7H2.25C1.93887 7 1.6875 6.77656 1.6875 6.5C1.6875 6.225 1.94062 6 2.25 6H7.2668C7.2334 6.26719 7.2334 6.73281 7.2668 7Z" fill="#CBCBCB"/>
</g>
<defs>
<clipPath id="clip0_1427_137">
<rect width="9" height="8" fill="white"/>
</clipPath>
</defs>
</svg>
