<svg width="8" height="8" viewBox="0 0 8 8" fill="none" xmlns="http://www.w3.org/2000/svg">
<g id="chalkboard-teacher" clip-path="url(#clip0_1460_8)">
<path id="Vector" d="M2.60002 5.20078C2.57015 5.20078 2.54027 5.20516 2.51177 5.21441C2.34977 5.26703 2.1794 5.30078 2.00002 5.30078C1.82065 5.30078 1.65027 5.26703 1.48815 5.21441C1.45965 5.20516 1.4299 5.20078 1.40002 5.20078C0.62427 5.20078 -0.00410481 5.83178 2.01935e-05 6.60853C0.00177019 6.93678 0.271645 7.20078 0.60002 7.20078H3.40002C3.72839 7.20078 3.99827 6.93678 4.00002 6.60853C4.00415 5.83178 3.37577 5.20078 2.60002 5.20078ZM2.00002 4.80078C2.66277 4.80078 3.20002 4.26353 3.20002 3.60078C3.20002 2.93803 2.66277 2.40078 2.00002 2.40078C1.33727 2.40078 0.80002 2.93803 0.80002 3.60078C0.80002 4.26353 1.33727 4.80078 2.00002 4.80078ZM7.40002 0.800781H2.60002C2.26915 0.800781 2.00002 1.07891 2.00002 1.42066V2.00078C2.29277 2.00078 2.56377 2.08553 2.80002 2.22328V1.60078H7.20002V5.20078H6.40002V4.40078H4.80002V5.20078H3.84702C4.08577 5.40941 4.26102 5.68491 4.34314 6.00078H7.40002C7.73089 6.00078 8.00002 5.72266 8.00002 5.38091V1.42066C8.00002 1.07891 7.73089 0.800781 7.40002 0.800781Z" fill="#CBCBCB"/>
</g>
<defs>
<clipPath id="clip0_1460_8">
<rect width="8" height="8" fill="white"/>
</clipPath>
</defs>
</svg>
