<svg width="8" height="8" viewBox="0 0 8 8" fill="none" xmlns="http://www.w3.org/2000/svg">
<g id="medal" clip-path="url(#clip0_1456_218)">
<path id="Vector" d="M3.49608 2.04297L2.41593 0.242812C2.37151 0.168759 2.30868 0.107472 2.23354 0.0649194C2.1584 0.0223671 2.07353 1.0602e-06 1.98718 0H0.250457C0.0481137 0 -0.0703238 0.227656 0.0456137 0.393438L1.78421 2.87719C2.24858 2.44328 2.83921 2.14547 3.49608 2.04297ZM7.74952 0H6.0128C5.83718 0 5.67436 0.0921875 5.58405 0.242812L4.50389 2.04297C5.16077 2.14547 5.75139 2.44328 6.21577 2.87703L7.95436 0.393438C8.0703 0.227656 7.95186 0 7.74952 0ZM3.99999 2.5C2.48124 2.5 1.24999 3.73125 1.24999 5.25C1.24999 6.76875 2.48124 8 3.99999 8C5.51874 8 6.74999 6.76875 6.74999 5.25C6.74999 3.73125 5.51874 2.5 3.99999 2.5ZM5.44561 4.95719L4.85296 5.53469L4.99311 6.35063C5.01811 6.49687 4.86405 6.60859 4.73296 6.53953L3.99999 6.15438L3.26718 6.53953C3.13593 6.60906 2.98202 6.49672 3.00702 6.35063L3.14718 5.53469L2.55452 4.95719C2.44796 4.85344 2.50686 4.67234 2.65374 4.65109L3.47296 4.53172L3.83905 3.78922C3.87202 3.72234 3.93577 3.68937 3.99968 3.68937C4.06389 3.68937 4.12811 3.72281 4.16108 3.78922L4.52718 4.53172L5.34639 4.65109C5.49327 4.67234 5.55218 4.85344 5.44561 4.95719Z" fill="#CBCBCB"/>
</g>
<defs>
<clipPath id="clip0_1456_218">
<rect width="8" height="8" fill="white"/>
</clipPath>
</defs>
</svg>
