<svg width="52" height="5" viewBox="0 0 52 5" fill="none" xmlns="http://www.w3.org/2000/svg">
<path d="M0 2.5V5H0.487645H0.97529V2.5V-4.76837e-07H0.487645H0V2.5Z" fill="white"/>
<path d="M1.9668 2.5V5H2.45444H2.94209L2.94518 3.26341L2.94983 1.52839L4.40812 3.26341L5.86796 5H6.36334H6.85873V2.5V-4.76837e-07H6.37108H5.88344L5.88034 1.73817L5.8757 3.47634L4.41896 1.7429L2.96376 0.00788593L2.46528 0.00315428L1.9668 -4.76837e-07V2.5Z" fill="white"/>
<path d="M7.84443 0.0110402C7.8305 0.0236583 7.8305 0.384857 7.84443 0.736592L7.85372 1.00946H8.82746H9.79966V3.00473V5H10.2873H10.7749V3.00473V1.00946L11.7549 1.00631L12.7333 1.00158V0.504731V0.00788546L10.2935 0.0031538C8.95286 0.00157642 7.84908 0.00473118 7.84443 0.0110402Z" fill="white"/>
<path d="M13.7168 0.505034V1.00977H16.1628H18.6087V0.505034V0.000301838H16.1628H13.7168V0.505034Z" fill="white"/>
<path d="M19.5996 2.5V5H22.0456H24.4915V4.49527V3.99054H22.5332H20.5749V1.99527V-4.76837e-07H20.0873H19.5996V2.5Z" fill="white"/>
<path d="M25.474 0.0190015C25.4693 0.0300422 25.4678 1.15307 25.4693 2.51585L25.474 4.99219H27.9199H30.3659V4.49534V3.9985L28.4122 3.99376L26.457 3.99061L26.4539 1.9985L26.4493 0.00796032L25.9647 0.00322819C25.5854 7.39098e-05 25.4786 0.00322819 25.474 0.0190015Z" fill="white"/>
<path d="M31.3496 2.5V5H31.8373H32.3249V2.5V-4.76837e-07H31.8373H31.3496V2.5Z" fill="white"/>
<path d="M34.6844 0.0174241C34.042 0.0678973 33.6132 0.337613 33.4289 0.80449C33.333 1.04582 33.2912 1.37074 33.3159 1.68462C33.3469 2.07578 33.4522 2.34708 33.6612 2.5679C33.8407 2.76033 34.0683 2.87547 34.4135 2.95276C34.5513 2.98272 34.6302 2.98588 35.621 2.99692C36.7805 3.00954 36.7945 3.00954 36.9787 3.10575C37.1443 3.19093 37.2171 3.30922 37.2186 3.49692C37.2217 3.68777 37.1304 3.82973 36.9524 3.90859C36.779 3.9843 36.8564 3.98115 35.025 3.99061L33.3066 3.9985V4.49534V4.99219H35.0792C36.7341 4.99219 36.8626 4.99061 37.0143 4.9638C37.3858 4.89597 37.6351 4.77925 37.827 4.58209C37.8951 4.51269 37.9741 4.41332 38.0035 4.36285C38.1599 4.09471 38.2342 3.66569 38.1924 3.27768C38.1676 3.05055 38.1258 2.89282 38.0407 2.71301C37.9803 2.58367 37.9509 2.54266 37.8286 2.42121C37.6304 2.22089 37.4493 2.12941 37.0886 2.04739C36.9539 2.01585 36.8781 2.01427 35.8765 2.00323C34.96 1.99376 34.7943 1.98903 34.7107 1.96695C34.4305 1.89124 34.2897 1.7414 34.2897 1.51742C34.2897 1.46064 34.2974 1.38651 34.3082 1.35339C34.3361 1.26033 34.4414 1.14834 34.5513 1.09787C34.7464 1.00954 34.734 1.00954 36.5437 1.00954H38.2063V0.504806V7.39098e-05L36.5236 0.00165129C35.5963 0.00322819 34.7696 0.0095377 34.6844 0.0174241Z" fill="white"/>
<path d="M39.1816 2.5V5H39.6693H40.1569V2.5V-4.76837e-07H39.6693H39.1816V2.5Z" fill="white"/>
<path d="M41.1484 0.504732V1.00946H42.1237H43.099V3.00473V5H43.5867H44.0743V3.00473V1.00946H45.0573H46.0404V0.504732V-4.76837e-07H43.5944H41.1484V0.504732Z" fill="white"/>
<path d="M46.6309 0.0142694C46.634 0.0221558 47.1232 0.623102 47.7192 1.34865L48.8028 2.66884L48.8106 3.8313L48.8183 4.99219H49.306H49.7936L49.8014 3.82973L49.8091 2.66569L50.8927 1.3455C51.4888 0.619947 51.9795 0.0205784 51.981 0.012692C51.9841 0.00638294 51.7008 7.39098e-05 51.351 7.39098e-05H50.7163L50.0103 0.859695L49.3044 1.71932L48.5985 0.859695L47.8926 7.39098e-05H47.2594C46.8817 7.39098e-05 46.6278 0.00638294 46.6309 0.0142694Z" fill="white"/>
<path d="M13.7168 2.49925V2.99609H16.1628H18.6087V2.49925V2.0024H16.1628H13.7168V2.49925Z" fill="white"/>
<path d="M13.7168 4.49527V5H16.1628H18.6087V4.49527V3.99054H16.1628H13.7168V4.49527Z" fill="white"/>
</svg>
