<svg width="8" height="8" viewBox="0 0 8 8" fill="none" xmlns="http://www.w3.org/2000/svg">
<g id="user-plus" clip-path="url(#clip0_1459_3)">
<path id="Vector" d="M7.8 3.40078H7V2.60078C7 2.49078 6.91 2.40078 6.8 2.40078H6.4C6.29 2.40078 6.2 2.49078 6.2 2.60078V3.40078H5.4C5.29 3.40078 5.2 3.49078 5.2 3.60078V4.00078C5.2 4.11078 5.29 4.20078 5.4 4.20078H6.2V5.00078C6.2 5.11078 6.29 5.20078 6.4 5.20078H6.8C6.91 5.20078 7 5.11078 7 5.00078V4.20078H7.8C7.91 4.20078 8 4.11078 8 4.00078V3.60078C8 3.49078 7.91 3.40078 7.8 3.40078ZM2.8 4.00078C3.68375 4.00078 4.4 3.28453 4.4 2.40078C4.4 1.51703 3.68375 0.800781 2.8 0.800781C1.91625 0.800781 1.2 1.51703 1.2 2.40078C1.2 3.28453 1.91625 4.00078 2.8 4.00078ZM3.92 4.40078H3.71125C3.43375 4.52828 3.125 4.60078 2.8 4.60078C2.475 4.60078 2.1675 4.52828 1.88875 4.40078H1.68C0.7525 4.40078 0 5.15328 0 6.08078V6.60078C0 6.93203 0.26875 7.20078 0.6 7.20078H5C5.33125 7.20078 5.6 6.93203 5.6 6.60078V6.08078C5.6 5.15328 4.8475 4.40078 3.92 4.40078Z" fill="#CBCBCB"/>
</g>
<defs>
<clipPath id="clip0_1459_3">
<rect width="8" height="8" fill="white"/>
</clipPath>
</defs>
</svg>
