<svg width="197" height="27" viewBox="0 0 197 27" fill="none" xmlns="http://www.w3.org/2000/svg">
<path d="M49.4209 7.60484H55.5771V26.2386H62.4174V7.60484H68.5737V0.759766H49.4209V7.60484Z" fill="white"/>
<path d="M81.6729 10.4958L79.0736 9.73521C77.6713 9.3169 76.9531 8.74648 76.9531 8.06197C76.9531 7.03521 78.0133 6.46479 79.9286 6.46479C82.2885 6.46479 84.8536 7.49155 87.0425 9.3169V2.09155C84.5116 0.684507 81.9465 0 79.2446 0C73.6355 0 70.1128 3.15634 70.1128 8.21408C70.1128 12.093 72.0965 14.6028 76.098 15.7817L79.4156 16.7704C80.7494 17.1507 81.3993 17.7592 81.3993 18.5958C81.3993 19.8507 80.2364 20.5352 78.1501 20.5352C75.414 20.5352 72.5753 19.3563 70.2838 17.2648V24.4901C72.9515 26.1634 75.7902 27 78.8341 27C84.6142 27 88.2395 23.6915 88.2395 18.4056C88.2395 14.4127 86.0506 11.7887 81.6729 10.4958Z" fill="white"/>
<path d="M40.5287 16.1612C40.5287 18.2908 39.0238 19.964 37.1086 19.964C35.1933 19.964 33.6884 18.2908 33.6884 16.1612V0.759766H26.8481V15.5908C26.8481 22.2837 31.0891 26.9992 37.1086 26.9992C43.128 26.9992 47.369 22.2837 47.369 15.5908V0.759766H40.5287V16.1612Z" fill="white"/>
<path d="M12.3125 0C5.40382 0 0 5.93239 0 13.5C0 21.0676 5.40382 27 12.3125 27C19.2212 27 24.625 21.0676 24.625 13.5C24.625 5.93239 19.2212 0 12.3125 0ZM12.3125 19.9648C9.33698 19.9648 7.01128 17.1127 7.01128 13.5C7.01128 9.88732 9.33698 7.03521 12.3125 7.03521C15.288 7.03521 17.6137 9.88732 17.6137 13.5C17.6137 17.1127 15.288 19.9648 12.3125 19.9648Z" fill="white"/>
<path d="M187.766 19.3936V0.759766H180.925V26.2386H197V19.3936H187.766Z" fill="white"/>
<path d="M166.39 0C163.551 0 161.533 0.760563 159.036 2.73803C157.532 3.80282 156.779 4.1831 156.129 4.1831C155.343 4.1831 154.624 3.80282 153.222 2.73803C150.725 0.760563 148.708 0 145.869 0C138.96 0 133.556 5.93239 133.556 13.5C133.556 21.0676 138.96 27 145.869 27C148.673 27 150.691 26.2394 153.222 24.262C154.59 23.1592 155.308 22.8169 156.129 22.8169C156.984 22.8169 157.703 23.1592 159.036 24.262C161.533 26.2394 163.551 27 166.39 27C173.298 27 178.702 21.0676 178.702 13.5C178.702 5.93239 173.298 0 166.39 0ZM166.356 19.7746C164.748 19.7746 162.354 18.7099 160.575 17.2268C158.9 15.8197 157.566 15.2113 156.129 15.2113C154.727 15.2113 153.359 15.8197 151.683 17.2648C149.905 18.7479 147.511 19.7746 145.903 19.7746C142.928 19.7746 140.568 16.9986 140.568 13.5C140.568 10.0014 142.928 7.22535 145.903 7.22535C147.511 7.22535 149.905 8.25211 151.683 9.73521C153.427 11.1803 154.795 11.7887 156.129 11.7887C157.566 11.7887 158.9 11.1803 160.575 9.77324C162.354 8.29014 164.748 7.22535 166.356 7.22535C169.331 7.22535 171.691 10.0014 171.691 13.5C171.691 16.9986 169.331 19.7746 166.356 19.7746Z" fill="white"/>
<path d="M124.493 9.88653H117.653V0.759766H110.812V26.2386H117.653V16.7316H124.493V26.2386H131.333V0.759766H124.493V9.88653Z" fill="white"/>
<path d="M89.6077 13.5C89.6077 21.4099 94.7037 27 101.92 27C103.801 27 106.195 26.5437 108.076 25.8211V18.5958C106.537 19.5085 104.827 19.9648 102.946 19.9648C99.2183 19.9648 96.619 17.3028 96.619 13.5C96.619 9.69718 99.2183 7.03521 102.946 7.03521C104.725 7.03521 106.435 7.52958 108.076 8.48028V1.25493C106.298 0.494366 103.938 0 101.92 0C94.7037 0 89.6077 5.59014 89.6077 13.5Z" fill="white"/>
</svg>
