<svg width="80" height="80" viewBox="0 0 80 80" fill="none" xmlns="http://www.w3.org/2000/svg">
<circle cx="40" cy="40" r="40" fill="black"/>
<path d="M52.373 41.2402C52.3535 37.6563 53.9746 34.9512 57.2559 32.959C55.4199 30.332 52.6465 28.8867 48.9844 28.6035C45.5176 28.3301 41.7285 30.625 40.3418 30.625C38.877 30.625 35.5176 28.7012 32.8809 28.7012C27.4316 28.7891 21.6406 33.0469 21.6406 41.709C21.6406 44.2676 22.1094 46.9108 23.0469 49.6387C24.2969 53.2227 28.8086 62.0117 33.5156 61.8652C35.9766 61.8066 37.7148 60.1172 40.918 60.1172C44.0234 60.1172 45.6348 61.8652 48.3789 61.8652C53.125 61.7969 57.207 53.8086 58.3984 50.2148C52.0312 47.2168 52.373 41.4258 52.373 41.2402ZM46.8457 25.2051C49.5117 22.041 49.2676 19.1602 49.1895 18.125C46.8359 18.2617 44.1113 19.7266 42.5586 21.5332C40.8496 23.4668 39.8438 25.8594 40.0586 28.5547C42.6074 28.75 44.9316 27.4414 46.8457 25.2051Z" fill="white"/>
</svg>
