<svg width="10" height="10" viewBox="0 0 10 10" fill="none" xmlns="http://www.w3.org/2000/svg">
<g clip-path="url(#clip0_3234_1762)">
<path d="M6.70693 2.13359L6.41964 2.23536C6.41964 2.42068 6.41964 2.4212 6.41943 2.60672L6.70641 2.70901C6.75089 2.81693 6.7735 2.87151 6.81829 2.97932L6.68725 3.25422C6.81829 3.38536 6.81881 3.38568 6.94985 3.51682L7.22516 3.3862C7.33308 3.43099 7.38745 3.45349 7.49537 3.49828L7.59725 3.78536C7.78266 3.78536 7.78318 3.78536 7.96881 3.78557L8.0712 3.4988C8.17912 3.45432 8.23381 3.43182 8.34173 3.38703L8.61673 3.51797C8.74798 3.38703 8.74829 3.38651 8.87954 3.25557L8.74881 2.98047C8.7936 2.87255 8.8162 2.81818 8.861 2.71036L9.14818 2.60859C9.14818 2.42328 9.14818 2.42276 9.1485 2.23724L8.86152 2.13516C8.81693 2.02734 8.79443 1.97276 8.74964 1.86484L8.88058 1.59005C8.74964 1.4588 8.74912 1.45859 8.61808 1.32734L8.34277 1.45807C8.23485 1.41328 8.18048 1.39068 8.07256 1.34589L7.97068 1.05891C7.78527 1.05891 7.78475 1.05891 7.59912 1.05859L7.49673 1.34536C7.38881 1.38995 7.33412 1.41245 7.2262 1.45724L6.9512 1.3263C6.81985 1.45724 6.81964 1.45776 6.68839 1.5887L6.81912 1.8638C6.77423 1.97141 6.75141 2.02578 6.70693 2.13359ZM7.78423 1.85026C8.10006 1.85057 8.356 2.10661 8.35579 2.42224C8.35548 2.73786 8.09933 2.9937 7.78339 2.99339C7.46756 2.99318 7.21162 2.73734 7.21183 2.42172C7.21214 2.10609 7.46839 1.85005 7.78423 1.85026Z" fill="#314D63"/>
<path d="M5.41059 3.93422C5.41059 4.03891 5.41059 4.03922 5.41028 4.14391L5.57236 4.20161C5.59747 4.26255 5.61028 4.29339 5.63549 4.35432L5.56142 4.50964C5.63549 4.58359 5.6357 4.5838 5.70965 4.65807L5.86507 4.58432C5.92611 4.60953 5.95684 4.62255 6.01788 4.64776L6.07549 4.80964C6.18017 4.80964 6.18049 4.80964 6.28517 4.80995L6.34309 4.64797C6.40403 4.62276 6.43476 4.61005 6.4958 4.58484L6.65122 4.6588C6.72517 4.58484 6.72549 4.58464 6.79976 4.51068L6.72601 4.35536C6.75122 4.29443 6.76424 4.2637 6.78945 4.20266L6.95142 4.14516C6.95142 4.04047 6.95142 4.04026 6.95174 3.93557L6.78965 3.87776C6.76445 3.81682 6.75174 3.78609 6.72653 3.72505L6.80059 3.56974C6.72653 3.49589 6.72632 3.49557 6.65226 3.42141L6.49684 3.49505C6.4359 3.46984 6.40507 3.45693 6.34413 3.43172L6.28653 3.26974C6.18184 3.26974 6.18153 3.26974 6.07674 3.26953L6.01892 3.43141C5.95799 3.45661 5.92715 3.46932 5.86622 3.49453L5.7108 3.42057C5.63674 3.49453 5.63653 3.49474 5.56226 3.5687L5.63601 3.72401C5.6108 3.78495 5.59778 3.81578 5.57257 3.87672L5.41059 3.93422ZM6.18101 3.71661C6.35945 3.71661 6.50403 3.8613 6.50372 4.03974C6.50372 4.21807 6.35892 4.36255 6.18049 4.36224C6.00195 4.36224 5.85747 4.21755 5.85767 4.03922C5.85799 3.86078 6.00278 3.71661 6.18101 3.71661Z" fill="#314D63"/>
<path d="M4.52588 4.7382C4.52588 4.80841 4.52588 4.80862 4.52588 4.87914L4.63484 4.91789C4.65182 4.95893 4.66036 4.97966 4.67734 5.02039L4.62765 5.12487C4.67755 5.17466 4.67755 5.17466 4.72744 5.22456L4.83192 5.17497C4.87275 5.19195 4.89348 5.20039 4.93452 5.21758L4.97327 5.32654C5.04359 5.32654 5.0438 5.32654 5.11442 5.32654L5.15307 5.21758C5.19421 5.2007 5.21494 5.19216 5.25577 5.17518L5.36025 5.22477C5.41005 5.17497 5.41005 5.17497 5.45994 5.12508L5.41036 5.0207C5.42734 4.97987 5.43577 4.95924 5.45307 4.9181L5.56202 4.87945C5.56202 4.80924 5.56202 4.80893 5.56202 4.73841L5.45307 4.69977C5.43609 4.65862 5.42755 4.63799 5.41067 4.59716L5.46025 4.49268C5.41036 4.44289 5.41036 4.44289 5.36046 4.3931L5.25598 4.44268C5.21515 4.4257 5.19442 4.41716 5.15338 4.39997L5.11463 4.29102C5.04432 4.29102 5.04411 4.29102 4.97359 4.29102L4.93484 4.39997C4.89369 4.41695 4.87307 4.42539 4.83223 4.44237L4.72765 4.39279C4.67786 4.44268 4.67786 4.44268 4.62796 4.49247L4.67755 4.59685C4.66057 4.63768 4.65213 4.65841 4.63484 4.69945L4.52588 4.7382ZM5.0438 4.59216C5.16369 4.59216 5.26077 4.68935 5.26077 4.80924C5.26077 4.92904 5.16348 5.02602 5.04359 5.02602C4.92369 5.02602 4.82661 4.92872 4.82661 4.80893C4.82661 4.68883 4.9239 4.59185 5.0438 4.59216Z" fill="#314D63"/>
<path d="M8.01173 4.52779C8.01173 4.45758 8.01173 4.45737 8.01173 4.38685L7.90277 4.3481C7.88579 4.30706 7.87736 4.28633 7.86038 4.2456L7.90996 4.14112C7.86007 4.09133 7.86007 4.09133 7.81017 4.04143L7.70569 4.09102C7.66486 4.07404 7.64423 4.0656 7.60309 4.04841L7.56434 3.93945C7.49413 3.93945 7.49382 3.93945 7.42329 3.93945L7.38454 4.04841C7.3434 4.06529 7.32277 4.07383 7.28194 4.09081L7.17736 4.04122C7.12757 4.09102 7.12757 4.09102 7.07767 4.14091L7.12725 4.24529C7.11027 4.28612 7.10184 4.30674 7.08454 4.34789L6.97559 4.38654C6.97559 4.45685 6.97559 4.45706 6.97559 4.52758L7.08454 4.56622C7.10152 4.60737 7.11007 4.62799 7.12704 4.66883L7.07746 4.77331C7.12725 4.8231 7.12725 4.8231 7.17715 4.87289L7.28163 4.82331C7.32246 4.84029 7.34319 4.84883 7.38423 4.86602L7.42298 4.97497C7.49329 4.97497 7.4935 4.97497 7.56413 4.97497L7.60277 4.86602C7.64392 4.84904 7.66465 4.8406 7.70548 4.82362L7.80996 4.8732C7.85986 4.82331 7.85986 4.82331 7.90965 4.77352L7.86007 4.66914C7.87704 4.62831 7.88559 4.60758 7.90277 4.56654L8.01173 4.52779ZM7.49382 4.67383C7.37392 4.67383 7.27684 4.57664 7.27684 4.45685C7.27684 4.33695 7.37423 4.23997 7.49413 4.23997C7.61392 4.23997 7.711 4.33727 7.711 4.45706C7.711 4.57685 7.61371 4.67383 7.49382 4.67383Z" fill="#314D63"/>
<path d="M5.29491 3.02245L5.24533 3.12682C5.29522 3.17672 5.29522 3.17672 5.34512 3.22651L5.4496 3.17693C5.49043 3.19391 5.51105 3.20234 5.5522 3.21964L5.59095 3.32849C5.66126 3.32849 5.66147 3.32849 5.73199 3.32849L5.77074 3.21964C5.81189 3.20266 5.83251 3.19411 5.87335 3.17724L5.97793 3.22672C6.02772 3.17693 6.02772 3.17693 6.07762 3.12714L6.02803 3.02266C6.04501 2.98182 6.05345 2.9612 6.07074 2.92016L6.1797 2.88141C6.1797 2.8112 6.1797 2.81089 6.1797 2.74036L6.07074 2.70172C6.05376 2.66068 6.04522 2.63995 6.02824 2.59911L6.07783 2.49474C6.02803 2.44484 6.02803 2.44484 5.97814 2.39505L5.87366 2.44464C5.83283 2.42766 5.8121 2.41922 5.77105 2.40193L5.7323 2.29297C5.66199 2.29297 5.66178 2.29297 5.59116 2.29297L5.55251 2.40193C5.51137 2.41891 5.49064 2.42734 5.4498 2.44432L5.34533 2.39484C5.29553 2.44464 5.29553 2.44464 5.24564 2.49443L5.29522 2.59891C5.27824 2.63974 5.2698 2.66036 5.25251 2.70141L5.14355 2.74016C5.14355 2.81036 5.14355 2.81068 5.14355 2.8812L5.25251 2.91984C5.26949 2.96089 5.27793 2.98161 5.29491 3.02245ZM5.66178 2.59411C5.78158 2.59411 5.87866 2.69141 5.87866 2.8112C5.87866 2.93099 5.78137 3.02797 5.66147 3.02797C5.54158 3.02797 5.44449 2.93068 5.44449 2.81089C5.44449 2.69109 5.54189 2.5938 5.66178 2.59411Z" fill="#314D63"/>
<mask id="mask0_3234_1762" style="mask-type:luminance" maskUnits="userSpaceOnUse" x="5" y="0" width="2" height="3">
<path d="M5.28003 0.855469H6.5867V2.16016H5.28003V0.855469Z" fill="white"/>
</mask>
<g mask="url(#mask0_3234_1762)">
<path d="M5.4719 1.76214L5.41003 1.89203C5.4719 1.95401 5.47211 1.95401 5.53388 2.01599L5.66388 1.95453C5.71482 1.97578 5.74055 1.98641 5.79149 2.00755L5.83951 2.14297C5.92701 2.14297 5.92722 2.14297 6.01472 2.14297L6.06305 2.00755C6.11399 1.98661 6.13972 1.97578 6.19065 1.95484L6.32055 2.01661C6.38263 1.95484 6.38263 1.95453 6.44472 1.89276L6.38315 1.76297C6.4044 1.71203 6.41503 1.6863 6.43617 1.63547L6.57169 1.58745C6.57169 1.50005 6.57169 1.49974 6.57169 1.41224L6.43617 1.36401C6.41524 1.31318 6.4044 1.28745 6.38347 1.23651L6.44524 1.10672C6.38347 1.04464 6.38315 1.04464 6.32138 0.982656L6.19138 1.04411C6.14044 1.02297 6.11472 1.01234 6.06388 0.991094L6.01586 0.855469C5.92826 0.855469 5.92805 0.855469 5.84055 0.855469L5.79222 0.990885C5.74128 1.01182 5.71555 1.02266 5.66472 1.04359L5.53472 0.981823C5.47263 1.04359 5.47263 1.04391 5.41065 1.10557L5.47211 1.23547C5.45097 1.28641 5.44034 1.31214 5.41909 1.36297L5.28357 1.41099C5.28357 1.49839 5.28357 1.4987 5.28357 1.58609L5.41909 1.63464C5.44034 1.68557 5.45097 1.7112 5.4719 1.76214ZM5.92805 1.22943C6.07711 1.22943 6.19805 1.35047 6.19805 1.49943C6.19805 1.64839 6.0768 1.76932 5.92774 1.76932C5.77867 1.76932 5.65774 1.64818 5.65774 1.49922C5.65774 1.34995 5.77867 1.22911 5.92805 1.22943Z" fill="#314D63"/>
</g>
<mask id="mask1_3234_1762" style="mask-type:luminance" maskUnits="userSpaceOnUse" x="8" y="3" width="2" height="3">
<path d="M8.18665 3.70703H9.50185V5.0137H8.18665V3.70703Z" fill="white"/>
</mask>
<g mask="url(#mask1_3234_1762)">
<path d="M9.49971 4.45443C9.49971 4.36703 9.49971 4.36672 9.49971 4.27932L9.36419 4.23109C9.34325 4.18016 9.33231 4.15443 9.31138 4.10359L9.37325 3.9737C9.31138 3.91172 9.31117 3.91172 9.24929 3.84964L9.1194 3.91109C9.06846 3.88995 9.04273 3.87932 8.99179 3.85818L8.94377 3.72266C8.85627 3.72266 8.85606 3.72266 8.76846 3.72266L8.72023 3.85818C8.66929 3.87911 8.64356 3.88995 8.59263 3.91089L8.46273 3.84911C8.40065 3.91089 8.40065 3.91109 8.33856 3.97286L8.40033 4.10276C8.37919 4.1537 8.36856 4.17932 8.34731 4.23026L8.21179 4.27818C8.21179 4.36568 8.21179 4.36599 8.21179 4.45339L8.34731 4.50161C8.36825 4.55255 8.37919 4.57828 8.40013 4.62911L8.33835 4.75901C8.40013 4.82099 8.40033 4.82099 8.46221 4.88307L8.5921 4.82151C8.64304 4.84276 8.66877 4.85339 8.71971 4.87453L8.76773 5.01005C8.85523 5.01005 8.85554 5.01005 8.94304 5.01005L8.99127 4.87453C9.04221 4.85359 9.06794 4.84276 9.11888 4.82182L9.24877 4.88359C9.31085 4.82182 9.31085 4.82151 9.37294 4.75984L9.31117 4.62995C9.33231 4.57901 9.34294 4.55339 9.36419 4.50245L9.49971 4.45443ZM8.85554 4.6363C8.70648 4.6363 8.58554 4.51516 8.58554 4.3662C8.58554 4.21724 8.70669 4.09641 8.85575 4.09641C9.00481 4.09641 9.12575 4.21755 9.12575 4.36651C9.12575 4.51547 9.00481 4.63651 8.85554 4.6363Z" fill="#314D63"/>
</g>
<path d="M4.49369 5.10977L4.4313 5.13945C4.40692 5.12935 4.39442 5.12404 4.37005 5.11393L4.34703 5.04883C4.30484 5.04883 4.30484 5.04883 4.26265 5.04883L4.23963 5.11372C4.21515 5.12383 4.20276 5.12883 4.17828 5.13914L4.11599 5.10945C4.0863 5.13914 4.08599 5.13914 4.0563 5.16914L4.08599 5.23143C4.07599 5.25581 4.07067 5.2682 4.06057 5.29258L3.99536 5.3157C3.99536 5.35779 3.99536 5.35779 3.99536 5.39997L4.06026 5.42299C4.07036 5.44737 4.07547 5.45987 4.08578 5.48424L4.05578 5.54674C4.08547 5.57643 4.08547 5.57674 4.11547 5.60643L4.17776 5.57674C4.20224 5.58685 4.21463 5.59216 4.23901 5.60216L4.26213 5.66737C4.30432 5.66737 4.30432 5.66737 4.34651 5.66737L4.36953 5.60247C4.3939 5.59237 4.4064 5.58737 4.43078 5.57706L4.49317 5.60674C4.52286 5.57706 4.52307 5.57706 4.55276 5.54706L4.52307 5.48477C4.53317 5.46039 4.53849 5.44789 4.54859 5.42352L4.6138 5.40049C4.6138 5.35831 4.6138 5.35831 4.6138 5.31622L4.5488 5.2931C4.5388 5.26872 4.53369 5.25633 4.52338 5.23195L4.55307 5.16966C4.52338 5.13945 4.52338 5.13945 4.49369 5.10977ZM4.30432 5.48768C4.23265 5.48768 4.17463 5.42966 4.17463 5.35779C4.17463 5.28602 4.23265 5.2282 4.30453 5.2282C4.37619 5.2282 4.43422 5.28622 4.43422 5.3581C4.43422 5.42966 4.37588 5.48768 4.30432 5.48768Z" fill="#314D63"/>
<path d="M6.23057 5.30068C6.23057 5.25849 6.23057 5.25849 6.23057 5.21641L6.16557 5.19328C6.15546 5.16891 6.15046 5.15651 6.14015 5.13203L6.16984 5.06984C6.14015 5.04016 6.14015 5.03984 6.11015 5.01016L6.04786 5.03984C6.02338 5.02974 6.01098 5.02443 5.98661 5.01443L5.96348 4.94922C5.9213 4.94922 5.9213 4.94922 5.87911 4.94922L5.85609 5.01411C5.83171 5.02422 5.81921 5.02922 5.79484 5.03964L5.73244 5.00995C5.70275 5.03964 5.70255 5.03964 5.67286 5.06953L5.70255 5.13182C5.69244 5.1562 5.68713 5.1687 5.67702 5.19307L5.61182 5.21609C5.61182 5.25828 5.61182 5.25828 5.61182 5.30036L5.67682 5.32349C5.68692 5.34786 5.69192 5.36026 5.70223 5.38464L5.67255 5.44693C5.70223 5.47661 5.70223 5.47693 5.73223 5.50661L5.79452 5.47693C5.8189 5.48693 5.8314 5.49224 5.85577 5.50234L5.8789 5.56755C5.92109 5.56755 5.92109 5.56755 5.96327 5.56755L5.9863 5.50266C6.01067 5.49255 6.02317 5.48755 6.04755 5.47714L6.10994 5.50682C6.13963 5.47714 6.13984 5.47714 6.16952 5.44724L6.13984 5.38495C6.14994 5.36057 6.15525 5.34807 6.16536 5.3237L6.23057 5.30068ZM5.92109 5.38786C5.84942 5.38786 5.7914 5.32984 5.7914 5.25797C5.7914 5.1862 5.84942 5.12839 5.9213 5.12839C5.99296 5.12839 6.05098 5.18641 6.05098 5.25828C6.05098 5.33005 5.99265 5.38786 5.92109 5.38786Z" fill="#314D63"/>
<path d="M4.85914 3.63727C4.83476 3.64727 4.82226 3.65237 4.79789 3.66268L4.7356 3.63299C4.70591 3.66268 4.7056 3.66268 4.67591 3.69258L4.7056 3.75487C4.69549 3.77924 4.69018 3.79174 4.68018 3.81612L4.61487 3.83914C4.61487 3.88133 4.61487 3.88133 4.61487 3.92352L4.67987 3.94654C4.68997 3.97091 4.69497 3.98341 4.70528 4.00779L4.6756 4.07008C4.70528 4.09977 4.70528 4.09997 4.73528 4.12966L4.79768 4.09997C4.82206 4.11008 4.83445 4.11539 4.85893 4.12539L4.88195 4.1906C4.92414 4.1906 4.92414 4.1906 4.96633 4.1906L4.98935 4.1257C5.01383 4.1156 5.02622 4.1106 5.0506 4.10029L5.11299 4.12997C5.14268 4.10029 5.14299 4.10029 5.17268 4.07029L5.14299 4.00799C5.15299 3.98362 5.15831 3.97122 5.16841 3.94674L5.23362 3.92372C5.23362 3.88164 5.23362 3.88164 5.23362 3.83945L5.16862 3.81643C5.15862 3.79206 5.15351 3.77956 5.1432 3.75518L5.17289 3.69289C5.1432 3.6632 5.1432 3.66289 5.1132 3.6332L5.05091 3.66289C5.02653 3.65289 5.01403 3.64758 4.98966 3.63747L4.96653 3.57227C4.92445 3.57227 4.92445 3.57227 4.88226 3.57227L4.85914 3.63727ZM5.05414 3.88164C5.05414 3.9532 4.99601 4.01122 4.92414 4.01122C4.85258 4.01122 4.79445 3.9532 4.79445 3.88133C4.79445 3.80945 4.85258 3.75174 4.92445 3.75174C4.99601 3.75195 5.05414 3.81008 5.05414 3.88164Z" fill="#314D63"/>
<path d="M4.17893 3.40813L1.38268 3.40625C1.33154 3.40625 1.28987 3.4476 1.28987 3.49906L1.28748 6.70469C1.28748 6.75594 1.32883 6.7975 1.38029 6.7975L7.25216 6.80177C7.30341 6.80177 7.34508 6.76042 7.34508 6.70896L7.34612 5.15083H7.1605L7.16018 5.19L7.15914 6.61625L1.47289 6.61219L1.47445 4.25552L3.80331 4.25708V4.2576L4.35893 4.25792V4.07229L4.14258 4.07208C4.14258 4.07177 4.14279 4.07156 4.14279 4.07156L1.47529 4.07L1.4755 3.59208L4.34893 3.59417C4.34893 3.59396 4.34914 3.59365 4.34914 3.59365H4.50779V3.40813H4.17893Z" fill="#314D63"/>
<mask id="mask2_3234_1762" style="mask-type:luminance" maskUnits="userSpaceOnUse" x="0" y="2" width="9" height="8">
<path d="M0.321899 2.45312H8.10669V9.2951H0.321899V2.45312Z" fill="white"/>
</mask>
<g mask="url(#mask2_3234_1762)">
<path d="M7.82809 5.00419L7.82653 7.09565L0.589758 7.09055L0.592674 3.01242C0.592674 2.85305 0.722362 2.72378 0.881841 2.72398L4.76059 2.72669V2.72826L4.95028 2.72857L4.95049 2.4619L0.88205 2.45898C0.576529 2.45867 0.327779 2.70701 0.327466 3.01242L0.324341 7.78607C0.324029 8.09138 0.57257 8.34003 0.878091 8.34024L3.18017 8.3418L2.9409 9.02701L2.29622 9.02649C2.22299 9.02649 2.16361 9.08586 2.16361 9.15899C2.16361 9.23211 2.22299 9.29148 2.29622 9.29148L5.93976 9.29419C6.01299 9.29419 6.07236 9.23482 6.07236 9.16159C6.07236 9.08846 6.01299 9.02909 5.93976 9.02909L5.22632 9.02857L4.98788 8.34315L7.53684 8.34503C7.84247 8.34534 8.09122 8.0969 8.09142 7.79159L8.0933 4.97951L7.82913 4.9793L7.82809 5.00419ZM4.94142 9.01774L3.22528 9.01638L3.46028 8.34346L4.70726 8.34419L4.94142 9.01774ZM7.82601 7.79138C7.82601 7.95065 7.69632 8.08003 7.53684 8.07971L0.878091 8.07492C0.718716 8.07492 0.589237 7.94534 0.589549 7.78607L0.589758 7.35534L7.82653 7.36044L7.82601 7.79138Z" fill="#314D63"/>
</g>
<path d="M1.89319 4.7832H3.75475V4.88924H1.89319V4.7832Z" fill="#314D63"/>
<path d="M1.89307 5.39258H3.75463V5.49852H1.89307V5.39258Z" fill="#314D63"/>
<path d="M1.89246 6.05469H3.75402V6.16063H1.89246V6.05469Z" fill="#314D63"/>
<path d="M4.24359 7.72333C4.24359 7.73594 4.24234 7.74844 4.23984 7.76083C4.23745 7.77323 4.2338 7.78521 4.2289 7.79688C4.22411 7.80854 4.21818 7.81958 4.2112 7.8301C4.20411 7.84063 4.1962 7.85031 4.18724 7.85927C4.17828 7.86813 4.16859 7.87615 4.15807 7.88313C4.14765 7.8901 4.13651 7.89604 4.12484 7.90083C4.11318 7.90573 4.1012 7.90938 4.0888 7.91177C4.0764 7.91427 4.0639 7.91552 4.0513 7.91552C4.0387 7.91552 4.0262 7.91427 4.0138 7.91177C4.0014 7.90938 3.98932 7.90573 3.97765 7.90083C3.96599 7.89604 3.95495 7.8901 3.94443 7.88313C3.93401 7.87615 3.92422 7.86813 3.91536 7.85927C3.9064 7.85031 3.89838 7.84063 3.8914 7.8301C3.88443 7.81958 3.87849 7.80854 3.87359 7.79688C3.8688 7.78521 3.86515 7.77323 3.86265 7.76083C3.86026 7.74844 3.85901 7.73594 3.85901 7.72333C3.85901 7.71073 3.86026 7.69823 3.86265 7.68583C3.86515 7.67354 3.8688 7.66146 3.87359 7.64979C3.87849 7.63813 3.88443 7.62708 3.8914 7.61656C3.89838 7.60615 3.9064 7.59635 3.91536 7.5875C3.92422 7.57854 3.93401 7.57063 3.94443 7.56354C3.95495 7.55656 3.96599 7.55063 3.97765 7.54583C3.98932 7.54104 4.0014 7.5374 4.0138 7.5349C4.0262 7.5324 4.0387 7.53125 4.0513 7.53125C4.0639 7.53125 4.0764 7.5324 4.0888 7.5349C4.1012 7.5374 4.11318 7.54104 4.12484 7.54583C4.13651 7.55063 4.14765 7.55656 4.15807 7.56354C4.16859 7.57063 4.17828 7.57854 4.18724 7.5875C4.1962 7.59635 4.20411 7.60615 4.2112 7.61656C4.21818 7.62708 4.22411 7.63813 4.2289 7.64979C4.2338 7.66146 4.23745 7.67354 4.23984 7.68583C4.24234 7.69823 4.24359 7.71073 4.24359 7.72333Z" fill="#314D63"/>
</g>
<defs>
<clipPath id="clip0_3234_1762">
<rect width="10" height="10" fill="white"/>
</clipPath>
</defs>
</svg>
