<svg width="15" height="15" viewBox="0 0 15 15" fill="none" xmlns="http://www.w3.org/2000/svg">
<mask id="mask0_3132_1535" style="mask-type:luminance" maskUnits="userSpaceOnUse" x="0" y="3" width="15" height="10">
<path d="M0.20813 3.96094H14.7881V12.5109H0.20813V3.96094Z" fill="white"/>
</mask>
<g mask="url(#mask0_3132_1535)">
<path d="M13.9656 3.97852H1.03079C0.871099 3.97852 0.722661 4.02523 0.598755 4.10227C0.365005 4.24805 0.20813 4.5068 0.20813 4.80117V11.6852C0.20813 12.1393 0.57688 12.508 1.03079 12.508H7.36063C6.66188 12.508 6.01 12.3071 5.45704 11.9577C4.45297 11.3249 3.78438 10.2051 3.78438 8.93102C3.78438 6.95836 5.38829 5.35414 7.36063 5.35414C9.33313 5.35414 10.9369 6.95836 10.9369 8.93102C10.9369 10.2051 10.2684 11.3249 9.26438 11.9577C8.71141 12.3071 8.05938 12.508 7.36063 12.508H13.9656C14.4195 12.508 14.7881 12.1393 14.7881 11.6852V4.80117C14.7881 4.34711 14.4195 3.97852 13.9656 3.97852ZM12.9588 5.09555L12.9478 5.64586L12.3178 5.63492C12.2436 5.6293 12.172 5.65961 12.1198 5.71195C12.0675 5.76414 12.0372 5.8357 12.0372 5.90992V7.83055H11.487V5.90992C11.487 5.68445 11.5752 5.47523 11.7347 5.32117C11.8942 5.1643 12.1061 5.08461 12.3289 5.08461L12.9588 5.09555ZM2.40891 5.6293H1.85875V5.07914H2.40891C2.86282 5.07914 3.23422 5.45055 3.23422 5.90445V7.83055H2.68407V5.90445C2.68407 5.7532 2.56032 5.6293 2.40891 5.6293Z" fill="#314D63"/>
</g>
<path d="M3.26719 3.97758L3.16 3.51523C3.07188 3.14117 2.74188 2.87695 2.35672 2.87695H1.53969C1.15172 2.87695 0.821722 3.14117 0.733597 3.51523L0.598754 4.10133L0.499847 4.52789H3.39375L3.26719 3.97758ZM1.19297 3.97758L1.27 3.63914C1.30032 3.51523 1.41032 3.42727 1.53969 3.42727H2.35672C2.48329 3.42727 2.59594 3.51523 2.6236 3.63914L2.70063 3.97758H1.19297Z" fill="#314D63"/>
<mask id="mask1_3132_1535" style="mask-type:luminance" maskUnits="userSpaceOnUse" x="3" y="1" width="9" height="4">
<path d="M3.44 1.5H11.28V4.56H3.44V1.5Z" fill="white"/>
</mask>
<g mask="url(#mask1_3132_1535)">
<path d="M11.1625 3.9782L10.8653 2.19242C10.7966 1.7907 10.4555 1.50195 10.0511 1.50195H4.67017C4.2658 1.50195 3.9247 1.7907 3.85595 2.19242L3.55892 3.9782L3.46814 4.52852H11.2533L11.1625 3.9782ZM4.11736 3.9782L4.40064 2.2832C4.42267 2.14852 4.53548 2.05211 4.67017 2.05211H10.0511C10.186 2.05211 10.2986 2.14852 10.3206 2.2832L10.6041 3.9782H4.11736Z" fill="#314D63"/>
</g>
<path d="M7.36062 5.9043C5.69078 5.9043 4.33469 7.26086 4.33469 8.93086C4.33469 10.601 5.69078 11.9576 7.36062 11.9576C9.03047 11.9576 10.3867 10.601 10.3867 8.93086C10.3867 7.26086 9.03047 5.9043 7.36062 5.9043ZM7.36062 10.8102C6.32625 10.8102 5.48172 9.96555 5.48172 8.93086C5.48172 7.89633 6.32625 7.05164 7.36062 7.05164C8.395 7.05164 9.23953 7.89633 9.23953 8.93086C9.23953 9.96555 8.395 10.8102 7.36062 10.8102Z" fill="#314D63"/>
<path d="M5.71014 2.60352H9.01124V3.42898H5.71014V2.60352Z" fill="#314D63"/>
</svg>
