<svg width="10" height="10" viewBox="0 0 10 10" fill="none" xmlns="http://www.w3.org/2000/svg">
<g id="check-square">
<g clip-path="url(#clip0_862_793)">
<path id="Vector" d="M8.4375 9.375H1.5625C1.04473 9.375 0.625 8.95527 0.625 8.4375V1.5625C0.625 1.04473 1.04473 0.625 1.5625 0.625H8.4375C8.95527 0.625 9.375 1.04473 9.375 1.5625V8.4375C9.375 8.95527 8.95527 9.375 8.4375 9.375ZM4.43973 7.45979L8.03348 3.86603C8.15551 3.744 8.15551 3.54613 8.03348 3.4241L7.59154 2.98217C7.46951 2.86014 7.27164 2.86012 7.14959 2.98217L4.21875 5.91299L2.85041 4.54465C2.72838 4.42262 2.53051 4.42262 2.40846 4.54465L1.96652 4.98658C1.84449 5.10861 1.84449 5.30648 1.96652 5.42852L3.99777 7.45977C4.11982 7.58184 4.31768 7.58184 4.43973 7.45979Z" fill="#ADCED8"/>
</g>
</g>
<defs>
<clipPath id="clip0_862_793">
<rect width="10" height="10" rx="5" fill="white"/>
</clipPath>
</defs>
</svg>
