<svg width="15" height="15" viewBox="0 0 15 15" fill="none" xmlns="http://www.w3.org/2000/svg">
<path d="M13.533 11.3996C13.5117 11.4087 13.5027 11.4118 13.4967 11.4177C12.8923 11.9738 12.158 12.2518 11.3694 12.4029C11.0219 12.4693 10.6683 12.4935 10.3178 12.5388C10.2816 12.5449 10.2422 12.551 10.1909 12.5569C10.215 12.6416 10.2392 12.7141 10.2603 12.7896C10.2936 12.9015 10.2603 12.9801 10.1425 13.0616C10.0489 13.1251 9.95515 13.1221 9.86156 13.0465C9.7739 12.974 9.75578 12.8985 9.80109 12.7837C9.82531 12.7232 9.83734 12.6566 9.86156 12.5812C9.48375 12.5932 9.13328 12.551 8.80093 12.4029C8.46546 12.2518 8.2025 12.0191 8.03328 11.6868C7.96687 11.7412 7.9125 11.7924 7.85203 11.8377C7.74328 11.9194 7.62843 11.9285 7.50156 11.8619C7.22656 11.7199 7.02703 11.4993 6.86093 11.2455C6.65234 10.9252 6.50125 10.5807 6.40468 10.2091C6.3714 10.0852 6.3925 9.98553 6.48625 9.90694C6.67359 9.74975 6.86093 9.59257 7.05734 9.4446C7.5589 9.06991 8.07562 8.70725 8.57125 8.3235C8.92468 8.0485 9.23593 7.72522 9.48078 7.34741C9.7014 7.0121 9.83734 6.64944 9.795 6.2385C9.75875 5.87288 9.66812 5.51928 9.52609 5.17788C9.47468 5.05397 9.43546 4.93007 9.54125 4.791C9.36593 4.81522 9.20875 4.82725 9.05765 4.86053C8.68609 4.9421 8.32343 4.89678 7.95781 4.82725C7.72515 4.78507 7.49546 4.74272 7.26281 4.70038C7.20531 4.68835 7.18421 4.70647 7.15406 4.75788C7.07234 4.89085 6.97265 5.01772 6.88203 5.1446C6.87296 5.14163 6.8639 5.1385 6.85484 5.13257C6.87296 5.08116 6.89406 5.03288 6.91234 4.98147C6.77328 4.9935 6.70984 5.07507 6.72187 5.23522C6.80343 5.23522 6.885 5.23522 6.97265 5.23522C6.98781 5.2896 6.95765 5.32288 6.90015 5.33194C6.85187 5.341 6.80046 5.341 6.7339 5.3471C6.84875 5.51632 7.08156 5.45288 7.18421 5.61303C7.15406 5.62507 7.13281 5.63413 7.10562 5.64319C7.13281 5.67335 7.15703 5.70366 7.19031 5.74288C7.14796 5.75803 7.11468 5.78225 7.08156 5.78225C6.92437 5.77616 6.77031 5.761 6.61609 5.74897C6.59796 5.74897 6.57984 5.73991 6.56171 5.73382C6.41375 5.68241 6.40468 5.66741 6.43187 5.51632C6.4439 5.44975 6.465 5.38632 6.46812 5.31991C6.47109 5.22616 6.51343 5.20507 6.59796 5.22319C6.61015 5.22616 6.62218 5.22319 6.62515 5.22319C6.62515 5.11132 6.62515 5.00553 6.62515 4.89678C6.58296 4.91803 6.52843 4.9421 6.46812 4.97241C6.47109 4.95428 6.47109 4.94522 6.47406 4.9421C6.78843 4.67319 7.12687 4.46475 7.56187 4.48288C7.81578 4.49491 8.07265 4.48882 8.3264 4.501C8.7314 4.5221 9.11812 4.45569 9.49281 4.3046C9.69828 4.22303 9.91281 4.15944 10.1244 4.096C10.1787 4.081 10.1909 4.05678 10.1819 4.0085C10.1637 3.87553 10.1516 3.74257 10.1273 3.6096C10.1244 3.58538 10.082 3.55522 10.0548 3.54616C9.9975 3.531 9.93406 3.53397 9.87359 3.52803C9.79796 3.52194 9.7889 3.48257 9.80718 3.41616C9.82828 3.32257 9.84031 3.22882 9.84937 3.13507C9.8525 3.11397 9.81625 3.08975 9.80109 3.07163C9.80406 3.0596 9.80406 3.05053 9.80718 3.04757C9.90375 3.00225 9.95218 2.92053 9.9914 2.82397C10.0186 2.75444 10.0761 2.69694 10.1183 2.6335C9.99453 2.52475 9.97328 2.42194 10.07 2.3435C10.1486 2.27991 10.2422 2.28897 10.333 2.31319C10.345 2.31632 10.3602 2.31928 10.3661 2.32835C10.49 2.45522 10.6623 2.49147 10.8164 2.561C11.0248 2.65772 11.0883 2.83897 11.0067 3.0535C10.9766 3.13507 10.9403 3.21069 10.9131 3.29225C10.8798 3.39803 10.9041 3.43132 11.0037 3.47663C11.0672 3.50382 11.1336 3.5371 11.1791 3.58241C11.2636 3.67007 11.2484 3.76366 11.1487 3.83928C11.1336 3.85132 11.1277 3.86944 11.1125 3.88147C11.0642 3.91772 11.0158 3.95397 10.9644 3.98428C10.9312 4.00538 10.895 4.02053 10.8587 4.03866C10.8587 4.04772 10.8587 4.05678 10.8617 4.06585C10.895 4.06585 10.9312 4.06882 10.9644 4.06585C11.1095 4.05069 11.2273 4.09303 11.3422 4.18975C11.5778 4.38913 11.8256 4.57647 12.0614 4.77288C12.3212 4.99053 12.6173 5.12038 12.9467 5.196C13.2428 5.26241 13.533 5.3621 13.823 5.46194C14.0527 5.54053 14.243 5.67944 14.37 5.90007C14.4214 5.99069 14.4969 6.06928 14.5633 6.15085C14.5573 6.15694 14.5483 6.16288 14.5422 6.16897C14.4998 6.12975 14.4606 6.09038 14.3972 6.02991C14.4244 6.17507 14.3911 6.27772 14.3095 6.36538C14.2975 6.37741 14.2672 6.37444 14.2248 6.38053C14.2884 6.22944 14.2672 6.1146 14.1252 6.03303C14.1283 6.09647 14.1312 6.15382 14.1342 6.21132C14.1252 6.21428 14.1131 6.21428 14.1041 6.21725C14.0556 6.05116 14.0073 5.88491 13.953 5.72178C13.9439 5.69757 13.8986 5.67647 13.8653 5.67038C13.4362 5.59788 13.0041 5.53132 12.575 5.45882C12.3423 5.4196 12.1459 5.29866 11.9525 5.17475C11.8227 5.09319 11.6987 5.00257 11.5658 4.9271C11.3028 4.77897 11.1064 4.84241 10.9856 5.11444C10.8556 5.40444 10.7802 5.70975 10.7741 6.02991C10.7741 6.07835 10.7831 6.13569 10.8103 6.17507C11.1216 6.63132 11.4208 7.09366 11.7531 7.53475C12.158 8.07569 12.6989 8.4535 13.3184 8.71022C13.8533 8.93382 14.3972 9.13038 14.9381 9.33882C14.9562 9.34491 14.9744 9.35085 14.9894 9.35694C14.9712 9.89788 14.4606 10.611 13.7112 11.1398C13.7837 11.3332 13.9197 11.4721 14.0859 11.593C14.2612 11.7199 14.4364 11.8499 14.5936 11.9949C14.6691 12.0644 14.7144 12.1702 14.7567 12.2699C14.802 12.3787 14.7719 12.4058 14.6509 12.3877C14.4092 12.3515 14.2309 12.2185 14.0769 12.0373C13.8955 11.8348 13.7142 11.6173 13.533 11.3996Z" fill="#314D63"/>
<path d="M6.41672 5.23828C6.35921 5.43156 6.30484 5.61297 6.2475 5.80328C5.98156 5.70953 5.72171 5.61594 5.46187 5.52531C5.38937 5.50109 5.31984 5.46781 5.24422 5.44969C4.63078 5.28359 4.15343 4.89672 3.69718 4.47969C3.67297 4.45562 3.64578 4.43437 3.60047 4.39219C3.51281 4.64297 3.41312 4.87859 3.34968 5.12031C3.29828 5.32281 3.26797 5.53437 3.265 5.74281C3.26203 5.9 3.30421 6.06625 3.35265 6.21719C3.47343 6.57984 3.62453 6.93047 3.73343 7.29609C3.79375 7.49547 3.90265 7.65859 4.01437 7.82188C4.26515 8.1875 4.51593 8.55312 4.785 8.90359C4.95718 9.13031 5.17468 9.32672 5.34703 9.55328C5.78812 10.1334 6.15375 10.762 6.50125 11.3995C6.65843 11.6867 6.81859 11.9738 6.97578 12.2608C6.9939 12.2941 7.00593 12.3303 7.02109 12.3666C7.04218 12.4239 7.02406 12.4572 6.96359 12.4692C6.74 12.5145 6.53453 12.43 6.40468 12.2456C6.29578 12.0916 6.18093 11.9375 6.06921 11.7803C6.02984 11.8045 5.99359 11.8286 5.9664 11.8467C5.26234 11.0491 4.53421 10.2755 3.90562 9.41734C3.59437 8.99422 3.23781 8.60437 2.89328 8.20563C2.80265 8.09984 2.69093 8.01516 2.57 7.90344C2.52468 7.99406 2.48547 8.0575 2.46125 8.12703C2.30109 8.63766 2.23156 9.15141 2.33437 9.68922C2.47937 10.4567 2.60015 11.2273 2.71812 11.9978C2.73625 12.1158 2.64859 12.2155 2.53672 12.285C2.54281 12.3061 2.5489 12.3272 2.55797 12.3453C2.58812 12.4391 2.56703 12.5055 2.47937 12.5419C2.40078 12.572 2.31625 12.5872 2.23156 12.6022C2.18328 12.6112 2.12875 12.6144 2.08047 12.6112C2.03218 12.6083 1.95656 12.6022 1.9475 12.575C1.93234 12.5297 1.93843 12.4602 1.96562 12.4148C2.01703 12.3212 2.08656 12.2366 2.15 12.1459C2.16812 12.1217 2.18328 12.0945 2.21953 12.0433C2.14703 12.0614 2.09859 12.0734 2.04125 12.0886C2.03218 12.0583 2.01703 12.0281 2.00797 11.9978C1.8689 11.4963 1.73 10.9916 1.58797 10.49C1.5214 10.2573 1.4489 10.0277 1.3825 9.795C1.27672 9.42641 1.28578 9.05172 1.33109 8.67703C1.40062 8.08172 1.47609 7.48938 1.55172 6.89406C1.5789 6.68859 1.61515 6.48625 1.64531 6.28078C1.68765 6.00875 1.65437 5.73984 1.61812 5.47094C1.60297 5.35 1.58797 5.23219 1.55468 5.10828C1.53359 5.16266 1.50937 5.21406 1.49125 5.26844C1.31297 5.74594 1.12265 6.22031 0.805309 6.62516C0.78109 6.65547 0.759996 6.68562 0.732809 6.71578C0.608903 6.85781 0.651246 6.87 0.45484 6.77031C0.36109 6.72187 0.273434 6.65844 0.17984 6.59797C0.318746 6.35016 0.448746 6.11156 0.584684 5.87875C0.932184 5.28359 1.14078 4.63984 1.28281 3.96906C1.36734 3.57625 1.325 3.66078 1.67859 3.54906C1.84781 3.49469 2.02312 3.46438 2.21046 3.41906C2.17109 3.56109 2.14093 3.685 2.10468 3.80891C2.04718 4.00531 2.06843 4.19875 2.09859 4.39516C2.13484 4.63688 2.16515 4.87859 2.21046 5.12031C2.50656 4.57344 2.72109 4.00234 2.85406 3.38281C3.10781 3.4675 3.34968 3.55516 3.59734 3.63062C3.79375 3.69109 3.9539 3.79375 4.09906 3.94187C4.26828 4.11719 4.45859 4.27422 4.64593 4.43437C4.89984 4.64891 5.18375 4.80609 5.50109 4.91188C5.80625 5.00547 6.10546 5.12344 6.41672 5.23828Z" fill="#314D63"/>
<path d="M2.48842 3.53641C2.43405 3.45782 2.37655 3.38828 2.33436 3.30969C2.31311 3.27047 2.32217 3.21297 2.3192 3.16469C2.31311 3.05282 2.30405 2.9411 2.29795 2.81422C2.20139 2.85641 2.17108 2.81719 2.15905 2.75063C2.14092 2.65703 2.10764 2.56328 2.22248 2.50297C2.23452 2.49688 2.23155 2.46063 2.23155 2.43938C2.24061 2.35782 2.24358 2.27328 2.25264 2.19172C2.2617 2.095 2.31311 2.03453 2.40983 2.01344C2.41889 2.01032 2.43092 2.01641 2.43702 2.01032C2.58202 1.87438 2.75436 1.93485 2.92045 1.93782C2.95373 1.93782 2.99905 1.965 3.01717 1.99219C3.08373 2.08282 3.11998 2.17657 3.09577 2.30344C3.06561 2.44844 3.08967 2.60266 3.06248 2.74766C3.03842 2.87766 2.98702 3.00157 2.93264 3.12235C2.84795 3.31578 2.66967 3.42157 2.48842 3.53641Z" fill="#314D63"/>
<path d="M0.197965 7.28734C0.137496 7.18453 0.0892151 7.10594 0.0468713 7.03047C0.0106213 6.96703 0.0407776 6.78562 0.0951526 6.72219C0.119371 6.695 0.140465 6.66781 0.164684 6.64062C0.240153 6.695 0.306715 6.74641 0.373121 6.79172C0.439684 6.83406 0.512184 6.86719 0.59984 6.91563C0.572653 7.02734 0.54234 7.14828 0.509215 7.26922C0.445778 7.24797 0.445778 7.24797 0.427653 7.07875C0.349059 7.14828 0.270465 7.22078 0.197965 7.28734Z" fill="#314D63"/>
<path d="M2.23156 3.86294C2.22547 3.74216 2.21953 3.64544 2.21344 3.55482C2.23156 3.54872 2.24063 3.54263 2.2436 3.54263C2.35547 3.61513 2.46125 3.61216 2.5761 3.53357C2.63344 3.49435 2.67875 3.5306 2.67578 3.60607C2.67578 3.63029 2.66969 3.65747 2.66375 3.68169C2.63344 3.86607 2.63344 3.86294 2.46422 3.79044C2.43703 3.77841 2.39781 3.78747 2.3675 3.79654C2.33125 3.8056 2.295 3.82966 2.23156 3.86294Z" fill="#314D63"/>
</svg>
