<svg width="15" height="15" viewBox="0 0 15 15" fill="none" xmlns="http://www.w3.org/2000/svg">
<path d="M0.0860876 12.7587C0.0785876 12.7442 0.0815563 12.7503 0.0857751 12.7589L0.0860876 12.7587Z" fill="#314D63"/>
<path d="M0.498116 12.5424C0.498741 12.5427 0.49921 12.5433 0.499678 12.5441C0.49171 12.529 0.477803 12.5027 0.498116 12.5424Z" fill="#314D63"/>
<mask id="mask0_3132_1522" style="mask-type:luminance" maskUnits="userSpaceOnUse" x="0" y="10" width="5" height="4">
<path d="M0.0187378 10.6406H4.91999V13.9938H0.0187378V10.6406Z" fill="white"/>
</mask>
<g mask="url(#mask0_3132_1522)">
<path d="M1.89787 13.9588C1.13615 13.8421 0.438024 13.4474 0.103493 12.7939L0.0859926 12.7599L0.0856801 12.76C0.0922426 12.7728 0.101618 12.7921 0.0850551 12.7603C0.0195864 12.6344 -0.0122887 12.5736 0.0595864 12.4514C0.139586 12.3144 0.211461 12.321 0.350055 12.3333C0.351149 12.3335 0.352086 12.3335 0.395993 12.3364C1.2524 12.395 1.35099 12.2596 1.70552 11.7722C1.78021 11.6697 1.86459 11.5536 1.97834 11.4071C2.00021 11.3791 2.01631 11.3588 2.02677 11.3461C2.41193 10.8802 2.87818 10.6619 3.35959 10.6438C3.83162 10.6261 4.31021 10.8044 4.73271 11.1321C4.8074 11.19 4.87052 11.2339 4.88381 11.3374C4.99099 12.1827 4.74021 12.8224 4.30099 13.2652C3.99865 13.57 3.60881 13.7772 3.18677 13.8907C2.77131 14.0024 2.32349 14.0239 1.89787 13.9588Z" fill="#314D63"/>
</g>
<mask id="mask1_3132_1522" style="mask-type:luminance" maskUnits="userSpaceOnUse" x="4" y="1" width="11" height="11">
<path d="M4.36218 1.00391H14.983V11.7578H4.36218V1.00391Z" fill="white"/>
</mask>
<g mask="url(#mask1_3132_1522)">
<path d="M4.36279 10.63C5.34779 8.98419 6.7292 7.42387 8.17326 6.05028C10.7739 3.57669 13.5829 1.70387 14.6251 1.04028C14.7334 0.971374 14.8775 1.00325 14.9465 1.11153C14.9976 1.19169 14.9936 1.29106 14.944 1.36544C14.2701 2.42309 12.3606 5.28372 9.84357 7.90747C8.43311 9.37762 6.83014 10.7753 5.14186 11.7454C5.14342 11.6011 5.13451 11.4548 5.11576 11.3076C5.09373 11.1337 5.00545 11.0473 4.87623 10.947C4.71732 10.8239 4.54498 10.7161 4.36279 10.63Z" fill="#314D63"/>
</g>
</svg>
